<svg xmlns="http://www.w3.org/2000/svg" width="1600" height="1000" fill="none" preserveAspectRatio="none" viewBox="0 100 1600 900"><mask id="b" width="1600" height="1000" x="0" y="0" maskUnits="userSpaceOnUse" style="mask-type:alpha"><path fill="url(#a)" stroke="#000" d="M.5.5h1599v999H.5z"/></mask><g mask="url(#b)"><path fill="#7c5757" d="M974.807 362.31c-9.361-25.03-10.672-67.591-10.672-67.591l-44.214-10.564s7.459 59.341 28.459 89.335c20.766 29.659 73.18 56.919 73.18 56.919s-35.453-37.884-46.753-68.099M766.445 246.44s-18.295-21.344-45.738-29.475l-53.869 134.164S551.984 420.245 508.279 475.13c67.875-12.701 110.514-4.91 173.805-32.525 84.328-36.794 97.397-109.89 177.87-154.492 14.61-8.098 38.166-19.312 38.166-19.312s-31.052-59.968-61.544-87.41c7.804 35.674 4.814 60.68-11.18 93.508-19 39-52.136 28.817-82.328 59.968-13.375 13.799-30.492 38.623-30.492 38.623s-4.229-24.145 0-38.623c5.475-18.747 20.194-23.045 30.492-39.64 11.139-17.951 23.377-48.787 23.377-48.787"/><path fill="#4f7cac" d="M1107.96 426.343c-41.31-39.393-34.56-94.012-86.4-117.902-20.94-9.651-57.425-13.722-57.425-13.722s1.311 42.561 10.672 67.591c11.3 30.215 46.753 68.099 46.753 68.099s-52.414-27.26-73.18-56.919c-21-29.994-28.459-89.335-28.459-89.335s-8.77-.257-13.213-3.157c-4.878-3.184-8.588-12.197-8.588-12.197s-23.556 11.214-38.166 19.312c-80.473 44.602-93.542 117.698-177.87 154.492-63.291 27.615-105.93 19.824-173.805 32.525-33.541 34.558-60.984 97.575-60.984 97.575h797.875s-22.22-52.927-45.74-80.296c-28.72-33.42-59.58-35.655-91.47-66.066"/><path fill="#86a3c2" d="M530.64 351.129c-70.54 53.59-175.837 143.313-175.837 143.313v78.263h92.492s27.443-63.017 60.984-97.575c43.705-54.885 158.559-124.001 158.559-124.001l53.869-134.164c-82.329 37.606-117.722 79.203-190.067 134.164M836.576 181.391c-32.524 21.344-70.131 65.049-70.131 65.049s-12.238 30.836-23.377 48.787c-10.298 16.595-25.017 20.893-30.492 39.64-4.229 14.478 0 38.623 0 38.623s17.117-24.824 30.492-38.623c30.192-31.151 63.328-20.968 82.328-59.968 15.994-32.828 18.984-57.834 11.18-93.508"/><g opacity=".1"><path fill="#7c5757" d="M974.807 781.785c-9.361 25.03-10.672 67.591-10.672 67.591l-44.214 10.564s7.459-59.341 28.459-89.335c20.766-29.659 73.18-56.918 73.18-56.918s-35.453 37.884-46.753 68.098M766.445 897.655s-18.295 21.344-45.738 29.476l-53.869-134.165s-114.854-69.115-158.559-124.001c67.875 12.702 110.514 4.91 173.805 32.525 84.328 36.794 97.397 109.89 177.87 154.493 14.61 8.098 38.166 19.311 38.166 19.311s-31.052 59.968-61.544 87.411c7.804-35.674 4.814-60.681-11.18-93.509-19-39-52.136-28.817-82.328-59.968-13.375-13.799-30.492-38.623-30.492-38.623s-4.229 24.145 0 38.623c5.475 18.747 20.194 23.045 30.492 39.64 11.139 17.951 23.377 48.787 23.377 48.787"/><path fill="#4f7cac" d="M1107.96 717.752c-41.31 39.394-34.56 94.013-86.4 117.903-20.94 9.65-57.425 13.721-57.425 13.721s1.311-42.561 10.672-67.591c11.3-30.214 46.753-68.098 46.753-68.098s-52.414 27.259-73.18 56.918c-21 29.994-28.459 89.335-28.459 89.335s-8.77.258-13.213 3.157c-4.878 3.184-8.588 12.197-8.588 12.197s-23.556-11.213-38.166-19.311c-80.473-44.603-93.542-117.699-177.87-154.493-63.291-27.615-105.93-19.823-173.805-32.525-33.541-34.558-60.984-97.574-60.984-97.574h797.875s-22.22 52.926-45.74 80.295c-28.72 33.42-59.58 35.655-91.47 66.066"/><path fill="#86a3c2" d="M530.64 792.966c-70.54-53.59-175.837-143.313-175.837-143.313v-78.262h92.492s27.443 63.016 60.984 97.574c43.705 54.886 158.559 124.001 158.559 124.001l53.869 134.165c-82.329-37.607-117.722-79.204-190.067-134.165M836.576 962.705c-32.524-21.345-70.131-65.05-70.131-65.05s-12.238-30.836-23.377-48.787c-10.298-16.595-25.017-20.893-30.492-39.64-4.229-14.478 0-38.623 0-38.623s17.117 24.824 30.492 38.623c30.192 31.151 63.328 20.968 82.328 59.968 15.994 32.828 18.984 57.835 11.18 93.509"/></g><path fill="#7c5757" d="M1206 618.003h394v-147s-76.98-31.94-128-28c-37.82 2.921-49.36 27.48-83 45-45.85 23.88-59.11 55.198-108 72-22.41 7.701-31.9 4.099-49 20.497-14.45 13.85-26 37.503-26 37.503"/><path fill="#4f7cac" d="M1088 594.003c-16.93 12.353-48 24-48 24h166s11.55-23.653 26-37.503c17.1-16.398 26.59-12.796 49-20.497 48.89-16.802 62.15-48.12 108-72 33.64-17.52 45.18-42.079 83-45 51.02-3.94 128 28 128 28v-101s-72.42-6.766-118 0c-30.26 4.492-48.86 4.873-76 19-28.22 14.692-61 54-61 54s-45.75 46.628-83 63c-42.98 18.888-79.87-8.937-119 17-29.23 19.378-26.67 50.327-55 71"/><path fill="#86a3c2" d="M1600 256.003s-25.64-4.507-41 0c-30.61 8.98-26.23 44.195-52 63-19.98 14.577-40.3 16.124-61 15.009 0 0-22.51 10.66-34 23.488-6.68 7.464-55 19-55 19s26.23-10.476 32-22c3.6-7.194 20-23.111 20-23.111-17.07-.526-34.4 1.195-52 10.614-51.16 27.387-44.51 95.702-101 109-23.19 5.459-38.23 7.01-61 0-19.27-5.932-31.89 10.132-52 11.497-28.8 1.954-10.55 7.264-38.5 14.5-9.83 2.545-16.5 11.003-16.5 11.003l-56 72-69 9-36 49h113s31.07-11.647 48-24c28.33-20.673 25.77-51.622 55-71 39.13-25.937 76.02 1.888 119-17 37.25-16.372 83-63 83-63s32.78-39.308 61-54c27.14-14.127 45.74-14.508 76-19 45.58-6.766 118 0 118 0z"/><path fill="#7c5757" d="M1412 357.5c11.49-12.828 34-23.488 34-23.488-12.2-.657-24.53-2.239-37-2.623 0 0-16.4 15.917-20 23.111-5.77 11.524-32 22-32 22s48.32-11.536 55-19M1062 488.003s-33.78-22.342-56-17c-23.361 5.616-24.34 28.866-43 44-28.104 22.795-64.989 22.35-81 45l-41 58h86l36-49 69-9 56-72z"/><g opacity=".25"><path fill="#7c5757" d="M1206 614h394v147s-76.98 31.94-128 28c-37.82-2.921-49.36-27.48-83-45-45.85-23.88-59.11-55.198-108-72-22.41-7.701-31.9-4.099-49-20.497-14.45-13.85-26-37.503-26-37.503"/><path fill="#4f7cac" d="M1088 638c-16.93-12.353-48-24-48-24h166s11.55 23.653 26 37.503c17.1 16.398 26.59 12.796 49 20.497 48.89 16.802 62.15 48.12 108 72 33.64 17.52 45.18 42.079 83 45 51.02 3.94 128-28 128-28v101s-72.42 6.766-118 0c-30.26-4.492-48.86-4.873-76-19-28.22-14.692-61-54-61-54s-45.75-46.628-83-63c-42.98-18.887-79.87 8.937-119-17-29.23-19.378-26.67-50.327-55-71"/><path fill="#86a3c2" d="M1600 976s-25.64 4.507-41 0c-30.61-8.98-26.23-44.195-52-63-19.98-14.577-40.3-16.124-61-15.009 0 0-22.51-10.659-34-23.488-6.68-7.464-55-19-55-19s26.23 10.476 32 22c3.6 7.194 20 23.111 20 23.111-17.07.526-34.4-1.194-52-10.614-51.16-27.387-44.51-95.702-101-109-23.19-5.459-38.23-7.01-61 0-19.27 5.933-31.89-10.132-52-11.497-28.8-1.954-10.55-7.264-38.5-14.5C1094.67 752.458 1088 744 1088 744l-56-72-69-9-36-49h113s31.07 11.647 48 24c28.33 20.673 25.77 51.622 55 71 39.13 25.937 76.02-1.887 119 17 37.25 16.372 83 63 83 63s32.78 39.308 61 54c27.14 14.127 45.74 14.508 76 19 45.58 6.766 118 0 118 0z"/><path fill="#7c5757" d="M1412 874.503c11.49 12.829 34 23.488 34 23.488-12.2.657-24.53 2.239-37 2.623 0 0-16.4-15.917-20-23.111-5.77-11.524-32-22-32-22s48.32 11.536 55 19M1062 744s-33.78 22.342-56 17c-23.361-5.616-24.34-28.865-43-44-28.104-22.795-64.989-22.35-81-45l-41-58h86l36 49 69 9 56 72z"/></g><path fill="#4f7cac" d="M823.05 617.65H589s39.337-24.632 57-47.65c5.835-7.605 13.5-20.5 13.5-20.5s21.088 7.453 34.5 12.5c51.366 19.33 129.05 55.65 129.05 55.65"/><path fill="#7c5757" d="m595.55 468.15 227.5 149.5S745.366 581.33 694 562c-13.412-5.047-34.5-12.5-34.5-12.5s-7.665 12.895-13.5 20.5c-17.663 23.018-57 47.65-57 47.65H449.5s29.276-54.939 30-93.15c.985-52.023-50-123.5-50-123.5z"/><path fill="#4f7cac" d="M527.5 392.5c28.936 29.322 41.944 43.782 68.05 75.65L429.5 401l-40.65-103.15s92.406 47.791 138.65 94.65"/><path fill="#86a3c2" d="m292 154.2 96.85 143.65L429.5 401s50.985 71.477 50 123.5c-.724 38.211-30 93.15-30 93.15h-170s-46.513-33.719-51.85-87.65c-6.626-66.948 35.975-115.163-10.4-163.9l10.4-56.55 29.9-41.6-11.768-81.25v-32.5s4.384-14.062 11.768-18.2c13.273-7.438 34.45 18.2 34.45 18.2"/><path fill="#4f7cac" d="M126.9 256.25s11.657 28.9 26 41.6c50.015 44.287 92.882-143.65 92.882-143.65v32.5l11.768 81.25-29.9 41.6-10.4 56.55c-18.023 0-10.4-6.1-10.4-6.1s-3.045 27.858 0 49.65c3.704 26.516-35.75 58.5-35.75 58.5v22.75l-44.2 56.55s17.689-5.832 26 0c11.843 8.311 4.419 23.273 0 37.05-5.025 15.667-26 33.15-26 33.15H-85s70.354-63.068 96.85-115.7c17.868-35.493 10.708-62.805 31.2-96.85 18.616-30.929 46.118-35.717 63.05-67.6 15.362-28.927 20.8-81.25 20.8-81.25"/><path fill="#7c5757" d="M206.85 360s-7.623 6.1 10.4 6.1c46.375 48.737 3.774 96.952 10.4 163.9 5.337 53.931 51.85 87.65 51.85 87.65H126.9s20.975-17.483 26-33.15c4.419-13.777 11.843-28.739 0-37.05-8.311-5.832-26 0-26 0l44.2-56.55v-22.75s39.454-31.984 35.75-58.5c-3.045-21.792 0-49.65 0-49.65"/><g opacity=".25"><path fill="#4f7cac" d="M823.05 618.646H589s39.337 24.632 57 47.65c5.835 7.605 13.5 20.5 13.5 20.5s21.088-7.453 34.5-12.5c51.366-19.33 129.05-55.65 129.05-55.65"/><path fill="#7c5757" d="m595.55 768.146 227.5-149.5s-77.684 36.32-129.05 55.65c-13.412 5.047-34.5 12.5-34.5 12.5s-7.665-12.895-13.5-20.5c-17.663-23.018-57-47.65-57-47.65H449.5s29.276 54.94 30 93.15c.985 52.023-50 123.5-50 123.5z"/><path fill="#4f7cac" d="M527.5 843.796c28.936-29.322 41.944-43.782 68.05-75.65l-166.05 67.15-40.65 103.15s92.406-47.79 138.65-94.65"/><path fill="#86a3c2" d="m292 1082.1 96.85-143.654 40.65-103.15s50.985-71.477 50-123.5c-.724-38.21-30-93.15-30-93.15h-170s-46.513 33.72-51.85 87.65c-6.626 66.948 35.975 115.163-10.4 163.9l10.4 56.55 29.9 41.6-11.768 81.254v32.5s4.384 14.06 11.768 18.2c13.273 7.43 34.45-18.2 34.45-18.2"/><path fill="#4f7cac" d="M126.9 980.046s11.657-28.9 26-41.6c50.015-44.287 92.882 143.654 92.882 143.654v-32.5l11.768-81.254-29.9-41.6-10.4-56.55c-18.023 0-10.4 6.1-10.4 6.1s-3.045-27.858 0-49.65c3.704-26.516-35.75-58.5-35.75-58.5v-22.75l-44.2-56.55s17.689 5.833 26 0c11.843-8.311 4.419-23.272 0-37.05-5.025-15.666-26-33.15-26-33.15H-85s70.354 63.069 96.85 115.7c17.868 35.493 10.708 62.805 31.2 96.85 18.616 30.93 46.118 35.717 63.05 67.6 15.362 28.927 20.8 81.25 20.8 81.25"/><path fill="#7c5757" d="M206.85 876.296s-7.623-6.1 10.4-6.1c46.375-48.737 3.774-96.952 10.4-163.9 5.337-53.93 51.85-87.65 51.85-87.65H126.9s20.975 17.484 26 33.15c4.419 13.778 11.843 28.739 0 37.05-8.311 5.833-26 0-26 0l44.2 56.55v22.75s39.454 31.984 35.75 58.5c-3.045 21.792 0 49.65 0 49.65"/></g><path fill="#678d58" stroke="#678d58" stroke-width="2.34" d="M347.4 776.2C205.023 735.934 0 625 0 625v375.3h954.9s-11.726-42.997-28.8-64.8c-30.625-39.108-72.396-29.128-114.3-55.8-27.753-17.665-39.541-33.063-67.5-50.4-132.901-82.414-246.422-10.543-396.9-53.1Z"/><path stroke="#7c5757" stroke-width="5" d="M21.5 617v100"/><path fill="#49683d" d="m21 496 30.31 52.5H-9.31z"/><path fill="#49683d" d="m21.5 524 32.476 52.5h-64.952z"/><path fill="#49683d" d="m21 550 34.641 52.5h-69.282z"/><path fill="#49683d" d="m21.5 575 36.806 52.5h-73.612z"/><path stroke="#7c5757" stroke-width="5" d="M52.5 597v100"/><path fill="#49683d" d="m52 476 30.31 52.5H21.69z"/><path fill="#49683d" d="m52.5 504 32.476 52.5H20.024z"/><path fill="#49683d" d="m52 530 34.641 52.5H17.359z"/><path fill="#49683d" d="m52.5 555 36.806 52.5H15.694z"/><path stroke="#7c5757" stroke-width="5" d="M91.5 617v100"/><path fill="#49683d" d="m91 496 30.311 52.5H60.689z"/><path fill="#49683d" d="m91.5 524 32.476 52.5H59.024z"/><path fill="#49683d" d="m91 550 34.641 52.5H56.359z"/><path fill="#49683d" d="m91.5 575 36.806 52.5H54.694z"/><path stroke="#7c5757" stroke-width="5" d="M122.5 597v100"/><path fill="#49683d" d="m122 476 30.311 52.5H91.689z"/><path fill="#49683d" d="m122.5 504 32.476 52.5H90.024z"/><path fill="#49683d" d="m122 530 34.641 52.5H87.359z"/><path fill="#49683d" d="m122.5 555 36.806 52.5H85.694z"/><path stroke="#7c5757" stroke-width="5" d="M97.5 658v100"/><path fill="#49683d" d="m97 537 30.311 52.5H66.689z"/><path fill="#49683d" d="m97.5 565 32.476 52.5H65.024z"/><path fill="#49683d" d="m97 591 34.641 52.5H62.359z"/><path fill="#49683d" d="m97.5 616 36.806 52.5H60.694z"/><path stroke="#7c5757" stroke-width="5" d="M128.5 638v100"/><path fill="#49683d" d="m128 517 30.311 52.5H97.689z"/><path fill="#49683d" d="m128.5 545 32.476 52.5H96.024z"/><path fill="#49683d" d="m128 571 34.641 52.5H93.359z"/><path fill="#49683d" d="m128.5 596 36.806 52.5H91.694z"/><path stroke="#7c5757" stroke-width="5" d="M167.5 658v100"/><path fill="#49683d" d="m167 537 30.311 52.5h-60.622z"/><path fill="#49683d" d="m167.5 565 32.476 52.5h-64.952z"/><path fill="#49683d" d="m167 591 34.641 52.5h-69.282z"/><path fill="#49683d" d="m167.5 616 36.806 52.5h-73.612z"/><path stroke="#7c5757" stroke-width="5" d="M198.5 638v100"/><path fill="#49683d" d="m198 517 30.311 52.5h-60.622z"/><path fill="#49683d" d="m198.5 545 32.476 52.5h-64.952z"/><path fill="#49683d" d="m198 571 34.641 52.5h-69.282z"/><path fill="#49683d" d="m198.5 596 36.806 52.5h-73.612z"/><path stroke="#7c5757" stroke-width="5" d="M174.5 685v100"/><path fill="#49683d" d="m174 564 30.311 52.5h-60.622z"/><path fill="#49683d" d="m174.5 592 32.476 52.5h-64.952z"/><path fill="#49683d" d="m174 618 34.641 52.5h-69.282z"/><path fill="#49683d" d="m174.5 643 36.806 52.5h-73.612z"/><path stroke="#7c5757" stroke-width="5" d="M205.5 665v100"/><path fill="#49683d" d="m205 544 30.311 52.5h-60.622z"/><path fill="#49683d" d="m205.5 572 32.476 52.5h-64.952z"/><path fill="#49683d" d="m205 598 34.641 52.5h-69.282z"/><path fill="#49683d" d="m205.5 623 36.806 52.5h-73.612z"/><path stroke="#7c5757" stroke-width="5" d="M244.5 685v100"/><path fill="#49683d" d="m244 564 30.311 52.5h-60.622z"/><path fill="#49683d" d="m244.5 592 32.476 52.5h-64.952z"/><path fill="#49683d" d="m244 618 34.641 52.5h-69.282z"/><path fill="#49683d" d="m244.5 643 36.806 52.5h-73.612z"/><path stroke="#7c5757" stroke-width="5" d="M275.5 665v100"/><path fill="#49683d" d="m275 544 30.311 52.5h-60.622z"/><path fill="#49683d" d="m275.5 572 32.476 52.5h-64.952z"/><path fill="#49683d" d="m275 598 34.641 52.5h-69.282z"/><path fill="#49683d" d="m275.5 623 36.806 52.5h-73.612z"/><path stroke="#7c5757" stroke-width="5" d="M251.5 715v100"/><path fill="#49683d" d="m251 594 30.311 52.5h-60.622z"/><path fill="#49683d" d="m251.5 622 32.476 52.5h-64.952z"/><path fill="#49683d" d="m251 648 34.641 52.5h-69.282z"/><path fill="#49683d" d="m251.5 673 36.806 52.5h-73.612z"/><path stroke="#7c5757" stroke-width="5" d="M282.5 695v100"/><path fill="#49683d" d="m282 574 30.311 52.5h-60.622z"/><path fill="#49683d" d="m282.5 602 32.476 52.5h-64.952z"/><path fill="#49683d" d="m282 628 34.641 52.5h-69.282z"/><path fill="#49683d" d="m282.5 653 36.806 52.5h-73.612z"/><path stroke="#7c5757" stroke-width="5" d="M321.5 715v100"/><path fill="#49683d" d="m321 594 30.311 52.5h-60.622z"/><path fill="#49683d" d="m321.5 622 32.476 52.5h-64.952z"/><path fill="#49683d" d="m321 648 34.641 52.5h-69.282z"/><path fill="#49683d" d="m321.5 673 36.806 52.5h-73.612z"/><path stroke="#7c5757" stroke-width="5" d="M352.5 695v100"/><path fill="#49683d" d="m352 574 30.311 52.5h-60.622z"/><path fill="#49683d" d="m352.5 602 32.476 52.5h-64.952z"/><path fill="#49683d" d="m352 628 34.641 52.5h-69.282z"/><path fill="#49683d" d="m352.5 653 36.806 52.5h-73.612z"/><path stroke="#7c5757" stroke-width="5" d="M336.5 730v100"/><path fill="#49683d" d="m336 609 30.311 52.5h-60.622z"/><path fill="#49683d" d="m336.5 637 32.476 52.5h-64.952z"/><path fill="#49683d" d="m336 663 34.641 52.5h-69.282z"/><path fill="#49683d" d="m336.5 688 36.806 52.5h-73.612z"/><path stroke="#7c5757" stroke-width="5" d="M367.5 710v100"/><path fill="#49683d" d="m367 589 30.311 52.5h-60.622z"/><path fill="#49683d" d="m367.5 617 32.476 52.5h-64.952z"/><path fill="#49683d" d="m367 643 34.641 52.5h-69.282z"/><path fill="#49683d" d="m367.5 668 36.806 52.5h-73.612z"/><path stroke="#7c5757" stroke-width="5" d="M406.5 730v100"/><path fill="#49683d" d="m406 609 30.311 52.5h-60.622z"/><path fill="#49683d" d="m406.5 637 32.476 52.5h-64.952z"/><path fill="#49683d" d="m406 663 34.641 52.5h-69.282z"/><path fill="#49683d" d="m406.5 688 36.806 52.5h-73.612z"/><path stroke="#7c5757" stroke-width="5" d="M437.5 710v100"/><path fill="#49683d" d="m437 589 30.311 52.5h-60.622z"/><path fill="#49683d" d="m437.5 617 32.476 52.5h-64.952z"/><path fill="#49683d" d="m437 643 34.641 52.5h-69.282z"/><path fill="#49683d" d="m437.5 668 36.806 52.5h-73.612z"/><path stroke="#7c5757" stroke-width="5" d="M455.5 736v100"/><path fill="#49683d" d="m455 615 30.311 52.5h-60.622z"/><path fill="#49683d" d="m455.5 643 32.476 52.5h-64.952z"/><path fill="#49683d" d="m455 669 34.641 52.5h-69.282z"/><path fill="#49683d" d="m455.5 694 36.806 52.5h-73.612z"/><path stroke="#7c5757" stroke-width="5" d="M486.5 716v100"/><path fill="#49683d" d="m486 595 30.311 52.5h-60.622z"/><path fill="#49683d" d="m486.5 623 32.476 52.5h-64.952z"/><path fill="#49683d" d="m486 649 34.641 52.5h-69.282z"/><path fill="#49683d" d="m486.5 674 36.806 52.5h-73.612z"/><path stroke="#7c5757" stroke-width="5" d="M525.5 736v100"/><path fill="#49683d" d="m525 615 30.311 52.5h-60.622z"/><path fill="#49683d" d="m525.5 643 32.476 52.5h-64.952z"/><path fill="#49683d" d="m525 669 34.641 52.5h-69.282z"/><path fill="#49683d" d="m525.5 694 36.806 52.5h-73.612z"/><path stroke="#7c5757" stroke-width="5" d="M556.5 716v100"/><path fill="#49683d" d="m556 595 30.311 52.5h-60.622z"/><path fill="#49683d" d="m556.5 623 32.476 52.5h-64.952z"/><path fill="#49683d" d="m556 649 34.641 52.5h-69.282z"/><path fill="#49683d" d="m556.5 674 36.806 52.5h-73.612z"/><path stroke="#7c5757" stroke-width="5" d="M543.5 741v100"/><path fill="#49683d" d="m543 620 30.311 52.5h-60.622z"/><path fill="#49683d" d="m543.5 648 32.476 52.5h-64.952z"/><path fill="#49683d" d="m543 674 34.641 52.5h-69.282z"/><path fill="#49683d" d="m543.5 699 36.806 52.5h-73.612z"/><path stroke="#7c5757" stroke-width="5" d="M574.5 721v100"/><path fill="#49683d" d="m574 600 30.311 52.5h-60.622z"/><path fill="#49683d" d="m574.5 628 32.476 52.5h-64.952z"/><path fill="#49683d" d="m574 654 34.641 52.5h-69.282z"/><path fill="#49683d" d="m574.5 679 36.806 52.5h-73.612z"/><path stroke="#7c5757" stroke-width="5" d="M613.5 741v100"/><path fill="#49683d" d="m613 620 30.311 52.5h-60.622z"/><path fill="#49683d" d="m613.5 648 32.476 52.5h-64.952z"/><path fill="#49683d" d="m613 674 34.641 52.5h-69.282z"/><path fill="#49683d" d="m613.5 699 36.806 52.5h-73.612z"/><path stroke="#7c5757" stroke-width="5" d="M644.5 721v100"/><path fill="#49683d" d="m644 600 30.311 52.5h-60.622z"/><path fill="#49683d" d="m644.5 628 32.476 52.5h-64.952z"/><path fill="#49683d" d="m644 654 34.641 52.5h-69.282z"/><path fill="#49683d" d="m644.5 679 36.806 52.5h-73.612z"/><path stroke="#7c5757" stroke-width="5" d="M626.5 771v100"/><path fill="#49683d" d="m626 650 30.311 52.5h-60.622z"/><path fill="#49683d" d="m626.5 678 32.476 52.5h-64.952z"/><path fill="#49683d" d="m626 704 34.641 52.5h-69.282z"/><path fill="#49683d" d="m626.5 729 36.806 52.5h-73.612z"/><path stroke="#7c5757" stroke-width="5" d="M657.5 751v100"/><path fill="#49683d" d="m657 630 30.311 52.5h-60.622z"/><path fill="#49683d" d="m657.5 658 32.476 52.5h-64.952z"/><path fill="#49683d" d="m657 684 34.641 52.5h-69.282z"/><path fill="#49683d" d="m657.5 709 36.806 52.5h-73.612z"/><path stroke="#7c5757" stroke-width="5" d="M696.5 771v100"/><path fill="#49683d" d="m696 650 30.311 52.5h-60.622z"/><path fill="#49683d" d="m696.5 678 32.476 52.5h-64.952z"/><path fill="#49683d" d="m696 704 34.641 52.5h-69.282z"/><path fill="#49683d" d="m696.5 729 36.806 52.5h-73.612z"/><path stroke="#7c5757" stroke-width="5" d="M727.5 751v100"/><path fill="#49683d" d="m727 630 30.311 52.5h-60.622z"/><path fill="#49683d" d="m727.5 658 32.476 52.5h-64.952z"/><path fill="#49683d" d="m727 684 34.641 52.5h-69.282z"/><path fill="#49683d" d="m727.5 709 36.806 52.5h-73.612z"/><path stroke="#7c5757" stroke-width="5" d="M714.5 823v100"/><path fill="#49683d" d="m714 702 30.311 52.5h-60.622z"/><path fill="#49683d" d="m714.5 730 32.476 52.5h-64.952z"/><path fill="#49683d" d="m714 756 34.641 52.5h-69.282z"/><path fill="#49683d" d="m714.5 781 36.806 52.5h-73.612z"/><path stroke="#7c5757" stroke-width="5" d="M745.5 803v100"/><path fill="#49683d" d="m745 682 30.311 52.5h-60.622z"/><path fill="#49683d" d="m745.5 710 32.476 52.5h-64.952z"/><path fill="#49683d" d="m745 736 34.641 52.5h-69.282z"/><path fill="#49683d" d="m745.5 761 36.806 52.5h-73.612z"/><path stroke="#7c5757" stroke-width="5" d="M784.5 823v100"/><path fill="#49683d" d="m784 702 30.311 52.5h-60.622z"/><path fill="#49683d" d="m784.5 730 32.476 52.5h-64.952z"/><path fill="#49683d" d="m784 756 34.641 52.5h-69.282z"/><path fill="#49683d" d="m784.5 781 36.806 52.5h-73.612z"/><path stroke="#7c5757" stroke-width="5" d="M815.5 803v100"/><path fill="#49683d" d="m815 682 30.311 52.5h-60.622z"/><path fill="#49683d" d="m815.5 710 32.476 52.5h-64.952z"/><path fill="#49683d" d="m815 736 34.641 52.5h-69.282z"/><path fill="#49683d" d="m815.5 761 36.806 52.5h-73.612z"/><path stroke="#7c5757" stroke-width="5" d="M788.5 862v100"/><path fill="#49683d" d="m788 741 30.311 52.5h-60.622z"/><path fill="#49683d" d="m788.5 769 32.476 52.5h-64.952z"/><path fill="#49683d" d="m788 795 34.641 52.5h-69.282z"/><path fill="#49683d" d="m788.5 820 36.806 52.5h-73.612z"/><path stroke="#7c5757" stroke-width="5" d="M819.5 842v100"/><path fill="#49683d" d="m819 721 30.311 52.5h-60.622z"/><path fill="#49683d" d="m819.5 749 32.476 52.5h-64.952z"/><path fill="#49683d" d="m819 775 34.641 52.5h-69.282z"/><path fill="#49683d" d="m819.5 800 36.806 52.5h-73.612z"/><path stroke="#7c5757" stroke-width="5" d="M858.5 862v100"/><path fill="#49683d" d="m858 741 30.311 52.5h-60.622z"/><path fill="#49683d" d="m858.5 769 32.476 52.5h-64.952z"/><path fill="#49683d" d="m858 795 34.641 52.5h-69.282z"/><path fill="#49683d" d="m858.5 820 36.806 52.5h-73.612z"/><path stroke="#7c5757" stroke-width="5" d="M889.5 842v100"/><path fill="#49683d" d="m889 721 30.311 52.5h-60.622z"/><path fill="#49683d" d="m889.5 749 32.476 52.5h-64.952z"/><path fill="#49683d" d="m889 775 34.641 52.5h-69.282z"/><path fill="#49683d" d="m889.5 800 36.806 52.5h-73.612z"/><path stroke="#7c5757" stroke-width="5" d="M41.5 648v100"/><path fill="#415d36" d="m41 527 30.31 52.5H10.69z"/><path fill="#415d36" d="m41.5 555 32.476 52.5H9.024z"/><path fill="#415d36" d="m41 581 34.641 52.5H6.359z"/><path fill="#415d36" d="m41.5 606 36.806 52.5H4.694z"/><path stroke="#7c5757" stroke-width="5" d="M72.5 628v100"/><path fill="#415d36" d="m72 507 30.311 52.5H41.689z"/><path fill="#415d36" d="m72.5 535 32.476 52.5H40.024z"/><path fill="#415d36" d="m72 561 34.641 52.5H37.359z"/><path fill="#415d36" d="m72.5 586 36.806 52.5H35.694z"/><path stroke="#7c5757" stroke-width="5" d="M111.5 648v100"/><path fill="#415d36" d="m111 527 30.311 52.5H80.689z"/><path fill="#415d36" d="m111.5 555 32.476 52.5H79.024z"/><path fill="#415d36" d="m111 581 34.641 52.5H76.359z"/><path fill="#415d36" d="m111.5 606 36.806 52.5H74.694z"/><path stroke="#7c5757" stroke-width="5" d="M142.5 628v100"/><path fill="#415d36" d="m142 507 30.311 52.5h-60.622z"/><path fill="#415d36" d="m142.5 535 32.476 52.5h-64.952z"/><path fill="#415d36" d="m142 561 34.641 52.5h-69.282z"/><path fill="#415d36" d="m142.5 586 36.806 52.5h-73.612z"/><path stroke="#7c5757" stroke-width="5" d="M117.5 689v100"/><path fill="#415d36" d="m117 568 30.311 52.5H86.689z"/><path fill="#415d36" d="m117.5 596 32.476 52.5H85.024z"/><path fill="#415d36" d="m117 622 34.641 52.5H82.359z"/><path fill="#415d36" d="m117.5 647 36.806 52.5H80.694z"/><path stroke="#7c5757" stroke-width="5" d="M148.5 669v100"/><path fill="#415d36" d="m148 548 30.311 52.5h-60.622z"/><path fill="#415d36" d="m148.5 576 32.476 52.5h-64.952z"/><path fill="#415d36" d="m148 602 34.641 52.5h-69.282z"/><path fill="#415d36" d="m148.5 627 36.806 52.5h-73.612z"/><path stroke="#7c5757" stroke-width="5" d="M187.5 689v100"/><path fill="#415d36" d="m187 568 30.311 52.5h-60.622z"/><path fill="#415d36" d="m187.5 596 32.476 52.5h-64.952z"/><path fill="#415d36" d="m187 622 34.641 52.5h-69.282z"/><path fill="#415d36" d="m187.5 647 36.806 52.5h-73.612z"/><path stroke="#7c5757" stroke-width="5" d="M218.5 669v100"/><path fill="#415d36" d="m218 548 30.311 52.5h-60.622z"/><path fill="#415d36" d="m218.5 576 32.476 52.5h-64.952z"/><path fill="#415d36" d="m218 602 34.641 52.5h-69.282z"/><path fill="#415d36" d="m218.5 627 36.806 52.5h-73.612z"/><path stroke="#7c5757" stroke-width="5" d="M194.5 716v100"/><path fill="#415d36" d="m194 595 30.311 52.5h-60.622z"/><path fill="#415d36" d="m194.5 623 32.476 52.5h-64.952z"/><path fill="#415d36" d="m194 649 34.641 52.5h-69.282z"/><path fill="#415d36" d="m194.5 674 36.806 52.5h-73.612z"/><path stroke="#7c5757" stroke-width="5" d="M225.5 696v100"/><path fill="#415d36" d="m225 575 30.311 52.5h-60.622z"/><path fill="#415d36" d="m225.5 603 32.476 52.5h-64.952z"/><path fill="#415d36" d="m225 629 34.641 52.5h-69.282z"/><path fill="#415d36" d="m225.5 654 36.806 52.5h-73.612z"/><path stroke="#7c5757" stroke-width="5" d="M264.5 716v100"/><path fill="#415d36" d="m264 595 30.311 52.5h-60.622z"/><path fill="#415d36" d="m264.5 623 32.476 52.5h-64.952z"/><path fill="#415d36" d="m264 649 34.641 52.5h-69.282z"/><path fill="#415d36" d="m264.5 674 36.806 52.5h-73.612z"/><path stroke="#7c5757" stroke-width="5" d="M295.5 696v100"/><path fill="#415d36" d="m295 575 30.311 52.5h-60.622z"/><path fill="#415d36" d="m295.5 603 32.476 52.5h-64.952z"/><path fill="#415d36" d="m295 629 34.641 52.5h-69.282z"/><path fill="#415d36" d="m295.5 654 36.806 52.5h-73.612z"/><path stroke="#7c5757" stroke-width="5" d="M271.5 746v100"/><path fill="#415d36" d="m271 625 30.311 52.5h-60.622z"/><path fill="#415d36" d="m271.5 653 32.476 52.5h-64.952z"/><path fill="#415d36" d="m271 679 34.641 52.5h-69.282z"/><path fill="#415d36" d="m271.5 704 36.806 52.5h-73.612z"/><path stroke="#7c5757" stroke-width="5" d="M302.5 726v100"/><path fill="#415d36" d="m302 605 30.311 52.5h-60.622z"/><path fill="#415d36" d="m302.5 633 32.476 52.5h-64.952z"/><path fill="#415d36" d="m302 659 34.641 52.5h-69.282z"/><path fill="#415d36" d="m302.5 684 36.806 52.5h-73.612z"/><path stroke="#7c5757" stroke-width="5" d="M341.5 746v100"/><path fill="#415d36" d="m341 625 30.311 52.5h-60.622z"/><path fill="#415d36" d="m341.5 653 32.476 52.5h-64.952z"/><path fill="#415d36" d="m341 679 34.641 52.5h-69.282z"/><path fill="#415d36" d="m341.5 704 36.806 52.5h-73.612z"/><path stroke="#7c5757" stroke-width="5" d="M372.5 726v100"/><path fill="#415d36" d="m372 605 30.311 52.5h-60.622z"/><path fill="#415d36" d="m372.5 633 32.476 52.5h-64.952z"/><path fill="#415d36" d="m372 659 34.641 52.5h-69.282z"/><path fill="#415d36" d="m372.5 684 36.806 52.5h-73.612z"/><path stroke="#7c5757" stroke-width="5" d="M356.5 761v100"/><path fill="#415d36" d="m356 640 30.311 52.5h-60.622z"/><path fill="#415d36" d="m356.5 668 32.476 52.5h-64.952z"/><path fill="#415d36" d="m356 694 34.641 52.5h-69.282z"/><path fill="#415d36" d="m356.5 719 36.806 52.5h-73.612z"/><path stroke="#7c5757" stroke-width="5" d="M387.5 741v100"/><path fill="#415d36" d="m387 620 30.311 52.5h-60.622z"/><path fill="#415d36" d="m387.5 648 32.476 52.5h-64.952z"/><path fill="#415d36" d="m387 674 34.641 52.5h-69.282z"/><path fill="#415d36" d="m387.5 699 36.806 52.5h-73.612z"/><path stroke="#7c5757" stroke-width="5" d="M426.5 761v100"/><path fill="#415d36" d="m426 640 30.311 52.5h-60.622z"/><path fill="#415d36" d="m426.5 668 32.476 52.5h-64.952z"/><path fill="#415d36" d="m426 694 34.641 52.5h-69.282z"/><path fill="#415d36" d="m426.5 719 36.806 52.5h-73.612z"/><path stroke="#7c5757" stroke-width="5" d="M457.5 741v100"/><path fill="#415d36" d="m457 620 30.311 52.5h-60.622z"/><path fill="#415d36" d="m457.5 648 32.476 52.5h-64.952z"/><path fill="#415d36" d="m457 674 34.641 52.5h-69.282z"/><path fill="#415d36" d="m457.5 699 36.806 52.5h-73.612z"/><path stroke="#7c5757" stroke-width="5" d="M475.5 767v100"/><path fill="#415d36" d="m475 646 30.311 52.5h-60.622z"/><path fill="#415d36" d="m475.5 674 32.476 52.5h-64.952z"/><path fill="#415d36" d="m475 700 34.641 52.5h-69.282z"/><path fill="#415d36" d="m475.5 725 36.806 52.5h-73.612z"/><path stroke="#7c5757" stroke-width="5" d="M506.5 747v100"/><path fill="#415d36" d="m506 626 30.311 52.5h-60.622z"/><path fill="#415d36" d="m506.5 654 32.476 52.5h-64.952z"/><path fill="#415d36" d="m506 680 34.641 52.5h-69.282z"/><path fill="#415d36" d="m506.5 705 36.806 52.5h-73.612z"/><path stroke="#7c5757" stroke-width="5" d="M545.5 767v100"/><path fill="#415d36" d="m545 646 30.311 52.5h-60.622z"/><path fill="#415d36" d="m545.5 674 32.476 52.5h-64.952z"/><path fill="#415d36" d="m545 700 34.641 52.5h-69.282z"/><path fill="#415d36" d="m545.5 725 36.806 52.5h-73.612z"/><path stroke="#7c5757" stroke-width="5" d="M576.5 747v100"/><path fill="#415d36" d="m576 626 30.311 52.5h-60.622z"/><path fill="#415d36" d="m576.5 654 32.476 52.5h-64.952z"/><path fill="#415d36" d="m576 680 34.641 52.5h-69.282z"/><path fill="#415d36" d="m576.5 705 36.806 52.5h-73.612z"/><path stroke="#7c5757" stroke-width="5" d="M563.5 772v100"/><path fill="#415d36" d="m563 651 30.311 52.5h-60.622z"/><path fill="#415d36" d="m563.5 679 32.476 52.5h-64.952z"/><path fill="#415d36" d="m563 705 34.641 52.5h-69.282z"/><path fill="#415d36" d="m563.5 730 36.806 52.5h-73.612z"/><path stroke="#7c5757" stroke-width="5" d="M594.5 752v100"/><path fill="#415d36" d="m594 631 30.311 52.5h-60.622z"/><path fill="#415d36" d="m594.5 659 32.476 52.5h-64.952z"/><path fill="#415d36" d="m594 685 34.641 52.5h-69.282z"/><path fill="#415d36" d="m594.5 710 36.806 52.5h-73.612z"/><path stroke="#7c5757" stroke-width="5" d="M633.5 772v100"/><path fill="#415d36" d="m633 651 30.311 52.5h-60.622z"/><path fill="#415d36" d="m633.5 679 32.476 52.5h-64.952z"/><path fill="#415d36" d="m633 705 34.641 52.5h-69.282z"/><path fill="#415d36" d="m633.5 730 36.806 52.5h-73.612z"/><path stroke="#7c5757" stroke-width="5" d="M664.5 752v100"/><path fill="#415d36" d="m664 631 30.311 52.5h-60.622z"/><path fill="#415d36" d="m664.5 659 32.476 52.5h-64.952z"/><path fill="#415d36" d="m664 685 34.641 52.5h-69.282z"/><path fill="#415d36" d="m664.5 710 36.806 52.5h-73.612z"/><path stroke="#7c5757" stroke-width="5" d="M646.5 802v100"/><path fill="#415d36" d="m646 681 30.311 52.5h-60.622z"/><path fill="#415d36" d="m646.5 709 32.476 52.5h-64.952z"/><path fill="#415d36" d="m646 735 34.641 52.5h-69.282z"/><path fill="#415d36" d="m646.5 760 36.806 52.5h-73.612z"/><path stroke="#7c5757" stroke-width="5" d="M677.5 782v100"/><path fill="#415d36" d="m677 661 30.311 52.5h-60.622z"/><path fill="#415d36" d="m677.5 689 32.476 52.5h-64.952z"/><path fill="#415d36" d="m677 715 34.641 52.5h-69.282z"/><path fill="#415d36" d="m677.5 740 36.806 52.5h-73.612z"/><path stroke="#7c5757" stroke-width="5" d="M716.5 802v100"/><path fill="#415d36" d="m716 681 30.311 52.5h-60.622z"/><path fill="#415d36" d="m716.5 709 32.476 52.5h-64.952z"/><path fill="#415d36" d="m716 735 34.641 52.5h-69.282z"/><path fill="#415d36" d="m716.5 760 36.806 52.5h-73.612z"/><path stroke="#7c5757" stroke-width="5" d="M747.5 782v100"/><path fill="#415d36" d="m747 661 30.311 52.5h-60.622z"/><path fill="#415d36" d="m747.5 689 32.476 52.5h-64.952z"/><path fill="#415d36" d="m747 715 34.641 52.5h-69.282z"/><path fill="#415d36" d="m747.5 740 36.806 52.5h-73.612z"/><path stroke="#7c5757" stroke-width="5" d="M734.5 854v100"/><path fill="#415d36" d="m734 733 30.311 52.5h-60.622z"/><path fill="#415d36" d="m734.5 761 32.476 52.5h-64.952z"/><path fill="#415d36" d="m734 787 34.641 52.5h-69.282z"/><path fill="#415d36" d="m734.5 812 36.806 52.5h-73.612z"/><path stroke="#7c5757" stroke-width="5" d="M765.5 834v100"/><path fill="#415d36" d="m765 713 30.311 52.5h-60.622z"/><path fill="#415d36" d="m765.5 741 32.476 52.5h-64.952z"/><path fill="#415d36" d="m765 767 34.641 52.5h-69.282z"/><path fill="#415d36" d="m765.5 792 36.806 52.5h-73.612z"/><path stroke="#7c5757" stroke-width="5" d="M804.5 854v100"/><path fill="#415d36" d="m804 733 30.311 52.5h-60.622z"/><path fill="#415d36" d="m804.5 761 32.476 52.5h-64.952z"/><path fill="#415d36" d="m804 787 34.641 52.5h-69.282z"/><path fill="#415d36" d="m804.5 812 36.806 52.5h-73.612z"/><path stroke="#7c5757" stroke-width="5" d="M835.5 834v100"/><path fill="#415d36" d="m835 713 30.311 52.5h-60.622z"/><path fill="#415d36" d="m835.5 741 32.476 52.5h-64.952z"/><path fill="#415d36" d="m835 767 34.641 52.5h-69.282z"/><path fill="#415d36" d="m835.5 792 36.806 52.5h-73.612z"/><path stroke="#7c5757" stroke-width="5" d="M808.5 893v100"/><path fill="#415d36" d="m808 772 30.311 52.5h-60.622z"/><path fill="#415d36" d="m808.5 800 32.476 52.5h-64.952z"/><path fill="#415d36" d="m808 826 34.641 52.5h-69.282z"/><path fill="#415d36" d="m808.5 851 36.806 52.5h-73.612z"/><path stroke="#7c5757" stroke-width="5" d="M839.5 873v100"/><path fill="#415d36" d="m839 752 30.311 52.5h-60.622z"/><path fill="#415d36" d="m839.5 780 32.476 52.5h-64.952z"/><path fill="#415d36" d="m839 806 34.641 52.5h-69.282z"/><path fill="#415d36" d="m839.5 831 36.806 52.5h-73.612z"/><path stroke="#7c5757" stroke-width="5" d="M878.5 893v100"/><path fill="#415d36" d="m878 772 30.311 52.5h-60.622z"/><path fill="#415d36" d="m878.5 800 32.476 52.5h-64.952z"/><path fill="#415d36" d="m878 826 34.641 52.5h-69.282z"/><path fill="#415d36" d="m878.5 851 36.806 52.5h-73.612z"/><path stroke="#7c5757" stroke-width="5" d="M909.5 873v100"/><path fill="#415d36" d="m909 752 30.311 52.5h-60.622z"/><path fill="#415d36" d="m909.5 780 32.476 52.5h-64.952z"/><path fill="#415d36" d="m909 806 34.641 52.5h-69.282z"/><path fill="#415d36" d="m909.5 831 36.806 52.5h-73.612z"/><path stroke="#7c5757" stroke-width="5" d="M24.5 678v100"/><path fill="#3b5531" d="m24 557 30.31 52.5H-6.31z"/><path fill="#3b5531" d="m24.5 585 32.476 52.5H-7.976z"/><path fill="#3b5531" d="m24 611 34.641 52.5h-69.282z"/><path fill="#3b5531" d="m24.5 636 36.806 52.5h-73.612z"/><path stroke="#7c5757" stroke-width="5" d="M55.5 658v100"/><path fill="#3b5531" d="m55 537 30.31 52.5H24.69z"/><path fill="#3b5531" d="m55.5 565 32.476 52.5H23.024z"/><path fill="#3b5531" d="m55 591 34.641 52.5H20.359z"/><path fill="#3b5531" d="m55.5 616 36.806 52.5H18.694z"/><path stroke="#7c5757" stroke-width="5" d="M94.5 678v100"/><path fill="#3b5531" d="m94 557 30.311 52.5H63.689z"/><path fill="#3b5531" d="m94.5 585 32.476 52.5H62.024z"/><path fill="#3b5531" d="m94 611 34.641 52.5H59.359z"/><path fill="#3b5531" d="m94.5 636 36.806 52.5H57.694z"/><path stroke="#7c5757" stroke-width="5" d="M125.5 658v100"/><path fill="#3b5531" d="m125 537 30.311 52.5H94.689z"/><path fill="#3b5531" d="m125.5 565 32.476 52.5H93.024z"/><path fill="#3b5531" d="m125 591 34.641 52.5H90.359z"/><path fill="#3b5531" d="m125.5 616 36.806 52.5H88.694z"/><path stroke="#7c5757" stroke-width="5" d="M100.5 719v100"/><path fill="#3b5531" d="m100 598 30.311 52.5H69.689z"/><path fill="#3b5531" d="m100.5 626 32.476 52.5H68.024z"/><path fill="#3b5531" d="m100 652 34.641 52.5H65.359z"/><path fill="#3b5531" d="m100.5 677 36.806 52.5H63.694z"/><path stroke="#7c5757" stroke-width="5" d="M131.5 699v100"/><path fill="#3b5531" d="m131 578 30.311 52.5h-60.622z"/><path fill="#3b5531" d="m131.5 606 32.476 52.5H99.024z"/><path fill="#3b5531" d="m131 632 34.641 52.5H96.359z"/><path fill="#3b5531" d="m131.5 657 36.806 52.5H94.694z"/><path stroke="#7c5757" stroke-width="5" d="M170.5 719v100"/><path fill="#3b5531" d="m170 598 30.311 52.5h-60.622z"/><path fill="#3b5531" d="m170.5 626 32.476 52.5h-64.952z"/><path fill="#3b5531" d="m170 652 34.641 52.5h-69.282z"/><path fill="#3b5531" d="m170.5 677 36.806 52.5h-73.612z"/><path stroke="#7c5757" stroke-width="5" d="M201.5 699v100"/><path fill="#3b5531" d="m201 578 30.311 52.5h-60.622z"/><path fill="#3b5531" d="m201.5 606 32.476 52.5h-64.952z"/><path fill="#3b5531" d="m201 632 34.641 52.5h-69.282z"/><path fill="#3b5531" d="m201.5 657 36.806 52.5h-73.612z"/><path stroke="#7c5757" stroke-width="5" d="M177.5 746v100"/><path fill="#3b5531" d="m177 625 30.311 52.5h-60.622z"/><path fill="#3b5531" d="m177.5 653 32.476 52.5h-64.952z"/><path fill="#3b5531" d="m177 679 34.641 52.5h-69.282z"/><path fill="#3b5531" d="m177.5 704 36.806 52.5h-73.612z"/><path stroke="#7c5757" stroke-width="5" d="M208.5 726v100"/><path fill="#3b5531" d="m208 605 30.311 52.5h-60.622z"/><path fill="#3b5531" d="m208.5 633 32.476 52.5h-64.952z"/><path fill="#3b5531" d="m208 659 34.641 52.5h-69.282z"/><path fill="#3b5531" d="m208.5 684 36.806 52.5h-73.612z"/><path stroke="#7c5757" stroke-width="5" d="M247.5 746v100"/><path fill="#3b5531" d="m247 625 30.311 52.5h-60.622z"/><path fill="#3b5531" d="m247.5 653 32.476 52.5h-64.952z"/><path fill="#3b5531" d="m247 679 34.641 52.5h-69.282z"/><path fill="#3b5531" d="m247.5 704 36.806 52.5h-73.612z"/><path stroke="#7c5757" stroke-width="5" d="M278.5 726v100"/><path fill="#3b5531" d="m278 605 30.311 52.5h-60.622z"/><path fill="#3b5531" d="m278.5 633 32.476 52.5h-64.952z"/><path fill="#3b5531" d="m278 659 34.641 52.5h-69.282z"/><path fill="#3b5531" d="m278.5 684 36.806 52.5h-73.612z"/><path stroke="#7c5757" stroke-width="5" d="M254.5 776v100"/><path fill="#3b5531" d="m254 655 30.311 52.5h-60.622z"/><path fill="#3b5531" d="m254.5 683 32.476 52.5h-64.952z"/><path fill="#3b5531" d="m254 709 34.641 52.5h-69.282z"/><path fill="#3b5531" d="m254.5 734 36.806 52.5h-73.612z"/><path stroke="#7c5757" stroke-width="5" d="M285.5 756v100"/><path fill="#3b5531" d="m285 635 30.311 52.5h-60.622z"/><path fill="#3b5531" d="m285.5 663 32.476 52.5h-64.952z"/><path fill="#3b5531" d="m285 689 34.641 52.5h-69.282z"/><path fill="#3b5531" d="m285.5 714 36.806 52.5h-73.612z"/><path stroke="#7c5757" stroke-width="5" d="M324.5 776v100"/><path fill="#3b5531" d="m324 655 30.311 52.5h-60.622z"/><path fill="#3b5531" d="m324.5 683 32.476 52.5h-64.952z"/><path fill="#3b5531" d="m324 709 34.641 52.5h-69.282z"/><path fill="#3b5531" d="m324.5 734 36.806 52.5h-73.612z"/><path stroke="#7c5757" stroke-width="5" d="M355.5 756v100"/><path fill="#3b5531" d="m355 635 30.311 52.5h-60.622z"/><path fill="#3b5531" d="m355.5 663 32.476 52.5h-64.952z"/><path fill="#3b5531" d="m355 689 34.641 52.5h-69.282z"/><path fill="#3b5531" d="m355.5 714 36.806 52.5h-73.612z"/><path stroke="#7c5757" stroke-width="5" d="M339.5 791v100"/><path fill="#3b5531" d="m339 670 30.311 52.5h-60.622z"/><path fill="#3b5531" d="m339.5 698 32.476 52.5h-64.952z"/><path fill="#3b5531" d="m339 724 34.641 52.5h-69.282z"/><path fill="#3b5531" d="m339.5 749 36.806 52.5h-73.612z"/><path stroke="#7c5757" stroke-width="5" d="M370.5 771v100"/><path fill="#3b5531" d="m370 650 30.311 52.5h-60.622z"/><path fill="#3b5531" d="m370.5 678 32.476 52.5h-64.952z"/><path fill="#3b5531" d="m370 704 34.641 52.5h-69.282z"/><path fill="#3b5531" d="m370.5 729 36.806 52.5h-73.612z"/><path stroke="#7c5757" stroke-width="5" d="M409.5 791v100"/><path fill="#3b5531" d="m409 670 30.311 52.5h-60.622z"/><path fill="#3b5531" d="m409.5 698 32.476 52.5h-64.952z"/><path fill="#3b5531" d="m409 724 34.641 52.5h-69.282z"/><path fill="#3b5531" d="m409.5 749 36.806 52.5h-73.612z"/><path stroke="#7c5757" stroke-width="5" d="M440.5 771v100"/><path fill="#3b5531" d="m440 650 30.311 52.5h-60.622z"/><path fill="#3b5531" d="m440.5 678 32.476 52.5h-64.952z"/><path fill="#3b5531" d="m440 704 34.641 52.5h-69.282z"/><path fill="#3b5531" d="m440.5 729 36.806 52.5h-73.612z"/><path stroke="#7c5757" stroke-width="5" d="M458.5 797v100"/><path fill="#3b5531" d="m458 676 30.311 52.5h-60.622z"/><path fill="#3b5531" d="m458.5 704 32.476 52.5h-64.952z"/><path fill="#3b5531" d="m458 730 34.641 52.5h-69.282z"/><path fill="#3b5531" d="m458.5 755 36.806 52.5h-73.612z"/><path stroke="#7c5757" stroke-width="5" d="M489.5 777v100"/><path fill="#3b5531" d="m489 656 30.311 52.5h-60.622z"/><path fill="#3b5531" d="m489.5 684 32.476 52.5h-64.952z"/><path fill="#3b5531" d="m489 710 34.641 52.5h-69.282z"/><path fill="#3b5531" d="m489.5 735 36.806 52.5h-73.612z"/><path stroke="#7c5757" stroke-width="5" d="M528.5 797v100"/><path fill="#3b5531" d="m528 676 30.311 52.5h-60.622z"/><path fill="#3b5531" d="m528.5 704 32.476 52.5h-64.952z"/><path fill="#3b5531" d="m528 730 34.641 52.5h-69.282z"/><path fill="#3b5531" d="m528.5 755 36.806 52.5h-73.612z"/><path stroke="#7c5757" stroke-width="5" d="M559.5 777v100"/><path fill="#3b5531" d="m559 656 30.311 52.5h-60.622z"/><path fill="#3b5531" d="m559.5 684 32.476 52.5h-64.952z"/><path fill="#3b5531" d="m559 710 34.641 52.5h-69.282z"/><path fill="#3b5531" d="m559.5 735 36.806 52.5h-73.612z"/><path stroke="#7c5757" stroke-width="5" d="M546.5 802v100"/><path fill="#3b5531" d="m546 681 30.311 52.5h-60.622z"/><path fill="#3b5531" d="m546.5 709 32.476 52.5h-64.952z"/><path fill="#3b5531" d="m546 735 34.641 52.5h-69.282z"/><path fill="#3b5531" d="m546.5 760 36.806 52.5h-73.612z"/><path stroke="#7c5757" stroke-width="5" d="M577.5 782v100"/><path fill="#3b5531" d="m577 661 30.311 52.5h-60.622z"/><path fill="#3b5531" d="m577.5 689 32.476 52.5h-64.952z"/><path fill="#3b5531" d="m577 715 34.641 52.5h-69.282z"/><path fill="#3b5531" d="m577.5 740 36.806 52.5h-73.612z"/><path stroke="#7c5757" stroke-width="5" d="M616.5 802v100"/><path fill="#3b5531" d="m616 681 30.311 52.5h-60.622z"/><path fill="#3b5531" d="m616.5 709 32.476 52.5h-64.952z"/><path fill="#3b5531" d="m616 735 34.641 52.5h-69.282z"/><path fill="#3b5531" d="m616.5 760 36.806 52.5h-73.612z"/><path stroke="#7c5757" stroke-width="5" d="M647.5 782v100"/><path fill="#3b5531" d="m647 661 30.311 52.5h-60.622z"/><path fill="#3b5531" d="m647.5 689 32.476 52.5h-64.952z"/><path fill="#3b5531" d="m647 715 34.641 52.5h-69.282z"/><path fill="#3b5531" d="m647.5 740 36.806 52.5h-73.612z"/><path stroke="#7c5757" stroke-width="5" d="M629.5 832v100"/><path fill="#3b5531" d="m629 711 30.311 52.5h-60.622z"/><path fill="#3b5531" d="m629.5 739 32.476 52.5h-64.952z"/><path fill="#3b5531" d="m629 765 34.641 52.5h-69.282z"/><path fill="#3b5531" d="m629.5 790 36.806 52.5h-73.612z"/><path stroke="#7c5757" stroke-width="5" d="M660.5 812v100"/><path fill="#3b5531" d="m660 691 30.311 52.5h-60.622z"/><path fill="#3b5531" d="m660.5 719 32.476 52.5h-64.952z"/><path fill="#3b5531" d="m660 745 34.641 52.5h-69.282z"/><path fill="#3b5531" d="m660.5 770 36.806 52.5h-73.612z"/><path stroke="#7c5757" stroke-width="5" d="M699.5 832v100"/><path fill="#3b5531" d="m699 711 30.311 52.5h-60.622z"/><path fill="#3b5531" d="m699.5 739 32.476 52.5h-64.952z"/><path fill="#3b5531" d="m699 765 34.641 52.5h-69.282z"/><path fill="#3b5531" d="m699.5 790 36.806 52.5h-73.612z"/><path stroke="#7c5757" stroke-width="5" d="M730.5 812v100"/><path fill="#3b5531" d="m730 691 30.311 52.5h-60.622z"/><path fill="#3b5531" d="m730.5 719 32.476 52.5h-64.952z"/><path fill="#3b5531" d="m730 745 34.641 52.5h-69.282z"/><path fill="#3b5531" d="m730.5 770 36.806 52.5h-73.612z"/><path stroke="#7c5757" stroke-width="5" d="M717.5 884v100"/><path fill="#3b5531" d="m717 763 30.311 52.5h-60.622z"/><path fill="#3b5531" d="m717.5 791 32.476 52.5h-64.952z"/><path fill="#3b5531" d="m717 817 34.641 52.5h-69.282z"/><path fill="#3b5531" d="m717.5 842 36.806 52.5h-73.612z"/><path stroke="#7c5757" stroke-width="5" d="M748.5 864v100"/><path fill="#3b5531" d="m748 743 30.311 52.5h-60.622z"/><path fill="#3b5531" d="m748.5 771 32.476 52.5h-64.952z"/><path fill="#3b5531" d="m748 797 34.641 52.5h-69.282z"/><path fill="#3b5531" d="m748.5 822 36.806 52.5h-73.612z"/><path stroke="#7c5757" stroke-width="5" d="M787.5 884v100"/><path fill="#3b5531" d="m787 763 30.311 52.5h-60.622z"/><path fill="#3b5531" d="m787.5 791 32.476 52.5h-64.952z"/><path fill="#3b5531" d="m787 817 34.641 52.5h-69.282z"/><path fill="#3b5531" d="m787.5 842 36.806 52.5h-73.612z"/><path stroke="#7c5757" stroke-width="5" d="M818.5 864v100"/><path fill="#3b5531" d="m818 743 30.311 52.5h-60.622z"/><path fill="#3b5531" d="m818.5 771 32.476 52.5h-64.952z"/><path fill="#3b5531" d="m818 797 34.641 52.5h-69.282z"/><path fill="#3b5531" d="m818.5 822 36.806 52.5h-73.612z"/><path stroke="#7c5757" stroke-width="5" d="M791.5 923v100"/><path fill="#3b5531" d="m791 802 30.311 52.5h-60.622z"/><path fill="#3b5531" d="m791.5 830 32.476 52.5h-64.952z"/><path fill="#3b5531" d="m791 856 34.641 52.5h-69.282z"/><path fill="#3b5531" d="m791.5 881 36.806 52.5h-73.612z"/><path stroke="#7c5757" stroke-width="5" d="M822.5 903v100"/><path fill="#3b5531" d="m822 782 30.311 52.5h-60.622z"/><path fill="#3b5531" d="m822.5 810 32.476 52.5h-64.952z"/><path fill="#3b5531" d="m822 836 34.641 52.5h-69.282z"/><path fill="#3b5531" d="m822.5 861 36.806 52.5h-73.612z"/><path stroke="#7c5757" stroke-width="5" d="M861.5 923v100"/><path fill="#3b5531" d="m861 802 30.311 52.5h-60.622z"/><path fill="#3b5531" d="m861.5 830 32.476 52.5h-64.952z"/><path fill="#3b5531" d="m861 856 34.641 52.5h-69.282z"/><path fill="#3b5531" d="m861.5 881 36.806 52.5h-73.612z"/><path stroke="#7c5757" stroke-width="5" d="M892.5 903v100"/><path fill="#3b5531" d="m892 782 30.311 52.5h-60.622z"/><path fill="#3b5531" d="m892.5 810 32.476 52.5h-64.952z"/><path fill="#3b5531" d="m892 836 34.641 52.5h-69.282z"/><path fill="#3b5531" d="m892.5 861 36.806 52.5h-73.612z"/><path fill="#344b2b" d="m-19.45 604.7 33.342 57.75h-66.684z"/><path fill="#344b2b" d="m-18.9 635.5 35.723 57.75h-71.447z"/><path fill="#344b2b" d="m-19.45 664.1 38.105 57.75h-76.21z"/><path fill="#344b2b" d="m-18.9 691.6 40.486 57.75h-80.973z"/><path stroke="#7c5757" stroke-width="5.5" d="M15.2 715.8v110"/><path fill="#344b2b" d="m14.65 582.7 33.342 57.75h-66.684z"/><path fill="#344b2b" d="m15.2 613.5 35.724 57.75h-71.448z"/><path fill="#344b2b" d="m14.65 642.1 38.105 57.75h-76.21z"/><path fill="#344b2b" d="m15.2 669.6 40.487 57.75h-80.974z"/><path stroke="#7c5757" stroke-width="5.5" d="M58.1 737.8v110"/><path fill="#344b2b" d="m57.55 604.7 33.342 57.75H24.208z"/><path fill="#344b2b" d="m58.1 635.5 35.724 57.75H22.377z"/><path fill="#344b2b" d="m57.55 664.1 38.105 57.75h-76.21z"/><path fill="#344b2b" d="m58.1 691.6 40.487 57.75H17.612z"/><path stroke="#7c5757" stroke-width="5.5" d="M92.2 715.8v110"/><path fill="#344b2b" d="m91.65 582.7 33.342 57.75H58.308z"/><path fill="#344b2b" d="m92.2 613.5 35.723 57.75H56.476z"/><path fill="#344b2b" d="m91.65 642.1 38.105 57.75h-76.21z"/><path fill="#344b2b" d="m92.2 669.6 40.486 57.75H51.713z"/><path stroke="#7c5757" stroke-width="5.5" d="M64.7 782.9v110"/><path fill="#344b2b" d="m64.15 649.8 33.342 57.75H30.808z"/><path fill="#344b2b" d="m64.7 680.6 35.723 57.75H28.976z"/><path fill="#344b2b" d="m64.15 709.2 38.105 57.75h-76.21z"/><path fill="#344b2b" d="m64.7 736.7 40.486 57.75H24.213z"/><path stroke="#7c5757" stroke-width="5.5" d="M98.8 760.9v110"/><path fill="#344b2b" d="m98.25 627.8 33.342 57.75H64.908z"/><path fill="#344b2b" d="m98.8 658.6 35.723 57.75H63.076z"/><path fill="#344b2b" d="m98.25 687.2 38.105 57.75h-76.21z"/><path fill="#344b2b" d="m98.8 714.7 40.486 57.75H58.313z"/><path stroke="#7c5757" stroke-width="5.5" d="M141.7 782.9v110"/><path fill="#344b2b" d="m141.15 649.8 33.342 57.75h-66.684z"/><path fill="#344b2b" d="m141.7 680.6 35.723 57.75h-71.447z"/><path fill="#344b2b" d="m141.15 709.2 38.105 57.75h-76.21z"/><path fill="#344b2b" d="m141.7 736.7 40.486 57.75h-80.973z"/><path stroke="#7c5757" stroke-width="5.5" d="M175.8 760.9v110"/><path fill="#344b2b" d="m175.25 627.8 33.342 57.75h-66.684z"/><path fill="#344b2b" d="m175.8 658.6 35.723 57.75h-71.447z"/><path fill="#344b2b" d="m175.25 687.2 38.105 57.75h-76.21z"/><path fill="#344b2b" d="m175.8 714.7 40.486 57.75h-80.973z"/><path stroke="#7c5757" stroke-width="5.5" d="M149.4 812.6v110"/><path fill="#344b2b" d="m148.85 679.5 33.342 57.75h-66.684z"/><path fill="#344b2b" d="m149.4 710.3 35.723 57.75h-71.447z"/><path fill="#344b2b" d="m148.85 738.9 38.105 57.75h-76.21z"/><path fill="#344b2b" d="m149.4 766.4 40.487 57.75h-80.974z"/><path stroke="#7c5757" stroke-width="5.5" d="M183.5 790.6v110"/><path fill="#344b2b" d="m182.95 657.5 33.342 57.75h-66.684z"/><path fill="#344b2b" d="m183.5 688.3 35.724 57.75h-71.448z"/><path fill="#344b2b" d="m182.95 716.9 38.105 57.75h-76.21z"/><path fill="#344b2b" d="m183.5 744.4 40.487 57.75h-80.974z"/><path stroke="#7c5757" stroke-width="5.5" d="M226.4 812.6v110"/><path fill="#344b2b" d="m225.85 679.5 33.342 57.75h-66.684z"/><path fill="#344b2b" d="m226.4 710.3 35.723 57.75h-71.447z"/><path fill="#344b2b" d="m225.85 738.9 38.105 57.75h-76.21z"/><path fill="#344b2b" d="m226.4 766.4 40.487 57.75h-80.974z"/><path stroke="#7c5757" stroke-width="5.5" d="M260.5 790.6v110"/><path fill="#344b2b" d="m259.95 657.5 33.342 57.75h-66.684z"/><path fill="#344b2b" d="m260.5 688.3 35.724 57.75h-71.448z"/><path fill="#344b2b" d="m259.95 716.9 38.105 57.75h-76.21z"/><path fill="#344b2b" d="m260.5 744.4 40.487 57.75h-80.974z"/><path stroke="#7c5757" stroke-width="5.5" d="M234.1 845.6v110"/><path fill="#344b2b" d="m233.55 712.5 33.342 57.75h-66.684z"/><path fill="#344b2b" d="m234.1 743.3 35.724 57.75h-71.447z"/><path fill="#344b2b" d="m233.55 771.9 38.105 57.75h-76.21z"/><path fill="#344b2b" d="m234.1 799.4 40.487 57.75h-80.974z"/><path stroke="#7c5757" stroke-width="5.5" d="M268.2 823.6v110"/><path fill="#344b2b" d="m267.65 690.5 33.342 57.75h-66.684z"/><path fill="#344b2b" d="m268.2 721.3 35.723 57.75h-71.447z"/><path fill="#344b2b" d="m267.65 749.9 38.105 57.75h-76.21z"/><path fill="#344b2b" d="m268.2 777.4 40.486 57.75h-80.973z"/><path stroke="#7c5757" stroke-width="5.5" d="M311.1 845.6v110"/><path fill="#344b2b" d="m310.55 712.5 33.342 57.75h-66.684z"/><path fill="#344b2b" d="m311.1 743.3 35.724 57.75h-71.447z"/><path fill="#344b2b" d="m310.55 771.9 38.105 57.75h-76.21z"/><path fill="#344b2b" d="m311.1 799.4 40.487 57.75h-80.974z"/><path stroke="#7c5757" stroke-width="5.5" d="M345.2 823.6v110"/><path fill="#344b2b" d="m344.65 690.5 33.342 57.75h-66.684z"/><path fill="#344b2b" d="m345.2 721.3 35.723 57.75h-71.447z"/><path fill="#344b2b" d="m344.65 749.9 38.105 57.75h-76.21z"/><path fill="#344b2b" d="m345.2 777.4 40.486 57.75h-80.973z"/><path stroke="#7c5757" stroke-width="5.5" d="M327.6 862.1v110"/><path fill="#344b2b" d="m327.05 729 33.342 57.75h-66.684z"/><path fill="#344b2b" d="m327.6 759.8 35.724 57.75h-71.447z"/><path fill="#344b2b" d="m327.05 788.4 38.105 57.75h-76.21z"/><path fill="#344b2b" d="m327.6 815.9 40.487 57.75h-80.974z"/><path stroke="#7c5757" stroke-width="5.5" d="M361.7 840.1v110"/><path fill="#344b2b" d="m361.15 707 33.342 57.75h-66.684z"/><path fill="#344b2b" d="m361.7 737.8 35.723 57.75h-71.447z"/><path fill="#344b2b" d="m361.15 766.4 38.105 57.75h-76.21z"/><path fill="#344b2b" d="m361.7 793.9 40.486 57.75h-80.973z"/><path stroke="#7c5757" stroke-width="5.5" d="M404.6 862.1v110"/><path fill="#344b2b" d="m404.05 729 33.342 57.75h-66.684z"/><path fill="#344b2b" d="m404.6 759.8 35.724 57.75h-71.447z"/><path fill="#344b2b" d="m404.05 788.4 38.105 57.75h-76.21z"/><path fill="#344b2b" d="m404.6 815.9 40.487 57.75h-80.974z"/><path stroke="#7c5757" stroke-width="5.5" d="M438.7 840.1v110"/><path fill="#344b2b" d="m438.15 707 33.342 57.75h-66.684z"/><path fill="#344b2b" d="m438.7 737.8 35.723 57.75h-71.447z"/><path fill="#344b2b" d="m438.15 766.4 38.105 57.75h-76.21z"/><path fill="#344b2b" d="m438.7 793.9 40.486 57.75h-80.973z"/><path stroke="#7c5757" stroke-width="5.5" d="M458.5 868.7v110"/><path fill="#344b2b" d="m457.95 735.6 33.342 57.75h-66.684z"/><path fill="#344b2b" d="m458.5 766.4 35.724 57.75h-71.448z"/><path fill="#344b2b" d="m457.95 795 38.105 57.75h-76.21z"/><path fill="#344b2b" d="m458.5 822.5 40.487 57.75h-80.974z"/><path stroke="#7c5757" stroke-width="5.5" d="M492.6 846.7v110"/><path fill="#344b2b" d="m492.05 713.6 33.342 57.75h-66.684z"/><path fill="#344b2b" d="m492.6 744.4 35.724 57.75h-71.447z"/><path fill="#344b2b" d="m492.05 773 38.105 57.75h-76.21z"/><path fill="#344b2b" d="m492.6 800.5 40.487 57.75h-80.974z"/><path stroke="#7c5757" stroke-width="5.5" d="M535.5 868.7v110"/><path fill="#344b2b" d="m534.95 735.6 33.342 57.75h-66.684z"/><path fill="#344b2b" d="m535.5 766.4 35.724 57.75h-71.448z"/><path fill="#344b2b" d="m534.95 795 38.105 57.75h-76.21z"/><path fill="#344b2b" d="m535.5 822.5 40.487 57.75h-80.974z"/><path stroke="#7c5757" stroke-width="5.5" d="M569.6 846.7v110"/><path fill="#344b2b" d="m569.049 713.6 33.342 57.75h-66.684z"/><path fill="#344b2b" d="m569.6 744.4 35.723 57.75h-71.447z"/><path fill="#344b2b" d="m569.049 773 38.105 57.75h-76.21z"/><path fill="#344b2b" d="m569.6 800.5 40.486 57.75h-80.973z"/><path stroke="#7c5757" stroke-width="5.5" d="M555.3 874.2v110"/><path fill="#344b2b" d="m554.75 741.1 33.342 57.75h-66.684z"/><path fill="#344b2b" d="m555.3 771.9 35.723 57.75h-71.447z"/><path fill="#344b2b" d="m554.75 800.5 38.105 57.75h-76.21z"/><path fill="#344b2b" d="m555.3 828 40.486 57.75h-80.973z"/><path stroke="#7c5757" stroke-width="5.5" d="M589.4 852.2v110"/><path fill="#344b2b" d="m588.85 719.1 33.342 57.75h-66.684z"/><path fill="#344b2b" d="m589.4 749.9 35.723 57.75h-71.447z"/><path fill="#344b2b" d="m588.85 778.5 38.105 57.75h-76.21z"/><path fill="#344b2b" d="m589.4 806 40.487 57.75h-80.974z"/><path stroke="#7c5757" stroke-width="5.5" d="M632.3 874.2v110"/><path fill="#344b2b" d="m631.75 741.1 33.342 57.75h-66.684z"/><path fill="#344b2b" d="m632.3 771.9 35.723 57.75h-71.447z"/><path fill="#344b2b" d="m631.75 800.5 38.105 57.75h-76.21z"/><path fill="#344b2b" d="m632.3 828 40.486 57.75h-80.973z"/><path stroke="#7c5757" stroke-width="5.5" d="M666.4 852.2v110"/><path fill="#344b2b" d="m665.85 719.1 33.342 57.75h-66.684z"/><path fill="#344b2b" d="m666.4 749.9 35.723 57.75h-71.447z"/><path fill="#344b2b" d="m665.85 778.5 38.105 57.75h-76.21z"/><path fill="#344b2b" d="m666.4 806 40.487 57.75h-80.974z"/><path stroke="#7c5757" stroke-width="5.5" d="M646.6 907.2v110"/><path fill="#344b2b" d="m646.049 774.1 33.342 57.75h-66.684z"/><path fill="#344b2b" d="m646.6 804.9 35.723 57.75h-71.447z"/><path fill="#344b2b" d="m646.049 833.5 38.105 57.75h-76.21z"/><path fill="#344b2b" d="m646.6 861 40.486 57.75h-80.973z"/><path stroke="#7c5757" stroke-width="5.5" d="M680.7 885.2v110"/><path fill="#344b2b" d="m680.15 752.1 33.342 57.75h-66.684z"/><path fill="#344b2b" d="m680.7 782.9 35.723 57.75h-71.447z"/><path fill="#344b2b" d="m680.15 811.5 38.105 57.75h-76.21z"/><path fill="#344b2b" d="m680.7 839 40.486 57.75h-80.973z"/><path stroke="#7c5757" stroke-width="5.5" d="M723.6 907.2v110"/><path fill="#344b2b" d="m723.049 774.1 33.342 57.75h-66.684z"/><path fill="#344b2b" d="m723.6 804.9 35.723 57.75h-71.447z"/><path fill="#344b2b" d="m723.049 833.5 38.105 57.75h-76.21z"/><path fill="#344b2b" d="m723.6 861 40.486 57.75h-80.973z"/><path stroke="#7c5757" stroke-width="5.5" d="M757.7 885.2v110"/><path fill="#344b2b" d="m757.15 752.1 33.342 57.75h-66.684z"/><path fill="#344b2b" d="m757.7 782.9 35.723 57.75h-71.447z"/><path fill="#344b2b" d="m757.15 811.5 38.105 57.75h-76.21z"/><path fill="#344b2b" d="m757.7 839 40.486 57.75h-80.973z"/><path stroke="#7c5757" stroke-width="5.5" d="M743.4 964.4v110"/><path fill="#344b2b" d="m742.85 831.3 33.342 57.75h-66.684z"/><path fill="#344b2b" d="m743.4 862.1 35.723 57.75h-71.447z"/><path fill="#344b2b" d="m742.85 890.7 38.105 57.75h-76.21z"/><path fill="#344b2b" d="m743.4 918.2 40.487 57.75h-80.974z"/><path stroke="#7c5757" stroke-width="5.5" d="M777.5 942.4v110"/><path fill="#344b2b" d="m776.95 809.3 33.342 57.75h-66.684z"/><path fill="#344b2b" d="m777.5 840.1 35.724 57.75h-71.448z"/><path fill="#344b2b" d="m776.95 868.7 38.105 57.75h-76.21z"/><path fill="#344b2b" d="m777.5 896.2 40.487 57.75h-80.974z"/><path stroke="#7c5757" stroke-width="5.5" d="M820.4 964.4v110"/><path fill="#344b2b" d="m819.85 831.3 33.342 57.75h-66.684z"/><path fill="#344b2b" d="m820.4 862.1 35.723 57.75h-71.447z"/><path fill="#344b2b" d="m819.85 890.7 38.105 57.75h-76.21z"/><path fill="#344b2b" d="m820.4 918.2 40.487 57.75h-80.974z"/><path stroke="#7c5757" stroke-width="5.5" d="M854.5 942.4v110"/><path fill="#344b2b" d="m853.95 809.3 33.342 57.75h-66.684z"/><path fill="#344b2b" d="m854.5 840.1 35.724 57.75h-71.448z"/><path fill="#344b2b" d="m853.95 868.7 38.105 57.75h-76.21z"/><path fill="#344b2b" d="m854.5 896.2 40.487 57.75h-80.974z"/><path fill="#344b2b" d="m824.25 874.2 33.342 57.75h-66.684z"/><path fill="#344b2b" d="m824.8 905 35.723 57.75h-71.447z"/><path fill="#344b2b" d="m824.25 933.6 38.105 57.75h-76.21z"/><path fill="#344b2b" d="m824.8 961.1 40.486 57.75h-80.973z"/><path stroke="#7c5757" stroke-width="5.5" d="M858.9 985.3v110"/><path fill="#344b2b" d="m858.35 852.2 33.342 57.75h-66.684z"/><path fill="#344b2b" d="m858.9 883 35.723 57.75h-71.447z"/><path fill="#344b2b" d="m858.35 911.6 38.105 57.75h-76.21z"/><path fill="#344b2b" d="m858.9 939.1 40.487 57.75h-80.974zM901.25 874.2l33.342 57.75h-66.684z"/><path fill="#344b2b" d="m901.8 905 35.723 57.75h-71.447z"/><path fill="#344b2b" d="m901.25 933.6 38.105 57.75h-76.21z"/><path fill="#344b2b" d="m901.8 961.1 40.486 57.75h-80.973z"/><path stroke="#7c5757" stroke-width="5.5" d="M935.9 985.3v110"/><path fill="#344b2b" d="m935.35 852.2 33.342 57.75h-66.684z"/><path fill="#344b2b" d="m935.9 883 35.723 57.75h-71.447z"/><path fill="#344b2b" d="m935.35 911.6 38.105 57.75h-76.21z"/><path fill="#344b2b" d="m935.9 939.1 40.487 57.75h-80.974z"/><path stroke="#7c5757" stroke-width="6.05" d="M-1.94 766.58v121"/><path fill="#2c3f25" d="m-2.545 620.17 36.676 63.525h-73.352z"/><path fill="#2c3f25" d="m-1.94 654.05 39.296 63.525h-78.592z"/><path fill="#2c3f25" d="m-2.545 685.51 41.915 63.525h-83.83z"/><path fill="#2c3f25" d="m-1.94 715.76 44.535 63.525h-89.07z"/><path stroke="#7c5757" stroke-width="6.05" d="M35.57 742.38v121"/><path fill="#2c3f25" d="m34.965 595.97 36.676 63.525H-1.71z"/><path fill="#2c3f25" d="m35.57 629.85 39.296 63.525H-3.726z"/><path fill="#2c3f25" d="m34.965 661.31 41.916 63.525H-6.951z"/><path fill="#2c3f25" d="m35.57 691.56 44.535 63.525h-89.07z"/><path stroke="#7c5757" stroke-width="6.05" d="M5.32 816.19v121"/><path fill="#2c3f25" d="m4.715 669.78 36.676 63.525H-31.96z"/><path fill="#2c3f25" d="m5.32 703.66 39.296 63.525h-78.592z"/><path fill="#2c3f25" d="m4.715 735.12 41.916 63.525h-83.832z"/><path fill="#2c3f25" d="m5.32 765.37 44.535 63.525h-89.07z"/><path stroke="#7c5757" stroke-width="6.05" d="M42.83 791.99v121"/><path fill="#2c3f25" d="m42.225 645.58 36.676 63.525H5.55z"/><path fill="#2c3f25" d="m42.83 679.46 39.296 63.525H3.534z"/><path fill="#2c3f25" d="m42.225 710.92 41.916 63.525H.309z"/><path fill="#2c3f25" d="m42.83 741.17 44.535 63.525h-89.07z"/><path stroke="#7c5757" stroke-width="6.05" d="M90.02 816.19v121"/><path fill="#2c3f25" d="m89.415 669.78 36.676 63.525H52.739z"/><path fill="#2c3f25" d="m90.02 703.66 39.295 63.525H50.724z"/><path fill="#2c3f25" d="m89.415 735.12 41.915 63.525H47.499z"/><path fill="#2c3f25" d="m90.02 765.37 44.535 63.525h-89.07z"/><path stroke="#7c5757" stroke-width="6.05" d="M127.53 791.99v121"/><path fill="#2c3f25" d="m126.925 645.58 36.676 63.525H90.249z"/><path fill="#2c3f25" d="m127.53 679.46 39.296 63.525H88.234z"/><path fill="#2c3f25" d="m126.925 710.92 41.916 63.525H85.009z"/><path fill="#2c3f25" d="m127.53 741.17 44.535 63.525h-89.07z"/><path stroke="#7c5757" stroke-width="6.05" d="M98.49 848.86v121"/><path fill="#2c3f25" d="m97.885 702.45 36.676 63.525H61.209z"/><path fill="#2c3f25" d="m98.49 736.33 39.296 63.525H59.194z"/><path fill="#2c3f25" d="m97.885 767.79 41.915 63.525H55.97z"/><path fill="#2c3f25" d="m98.49 798.04 44.535 63.525h-89.07z"/><path stroke="#7c5757" stroke-width="6.05" d="M136 824.66v121"/><path fill="#2c3f25" d="m135.395 678.25 36.676 63.525H98.719z"/><path fill="#2c3f25" d="m136 712.13 39.296 63.525H96.704z"/><path fill="#2c3f25" d="m135.395 743.59 41.915 63.525H93.479z"/><path fill="#2c3f25" d="m136 773.84 44.535 63.525h-89.07z"/><path stroke="#7c5757" stroke-width="6.05" d="M183.19 848.86v121"/><path fill="#2c3f25" d="m182.584 702.45 36.677 63.525h-73.353z"/><path fill="#2c3f25" d="m183.189 736.33 39.296 63.525h-78.591z"/><path fill="#2c3f25" d="m182.585 767.79 41.915 63.525h-83.831z"/><path fill="#2c3f25" d="m183.19 798.04 44.535 63.525h-89.071z"/><path stroke="#7c5757" stroke-width="6.05" d="M220.7 824.66v121"/><path fill="#2c3f25" d="m220.095 678.25 36.676 63.525h-73.353z"/><path fill="#2c3f25" d="m220.7 712.13 39.296 63.525h-78.592z"/><path fill="#2c3f25" d="m220.095 743.59 41.915 63.525h-83.831z"/><path fill="#2c3f25" d="m220.7 773.84 44.535 63.525h-89.07z"/><path stroke="#7c5757" stroke-width="6.05" d="M191.66 885.16v121"/><path fill="#2c3f25" d="m191.055 738.75 36.676 63.525h-73.352z"/><path fill="#2c3f25" d="m191.66 772.63 39.296 63.525h-78.592z"/><path fill="#2c3f25" d="m191.055 804.09 41.915 63.525h-83.831z"/><path fill="#2c3f25" d="m191.66 834.34 44.535 63.525h-89.07z"/><path stroke="#7c5757" stroke-width="6.05" d="M229.17 860.96v121"/><path fill="#2c3f25" d="m228.565 714.55 36.676 63.525h-73.352z"/><path fill="#2c3f25" d="m229.17 748.43 39.296 63.525h-78.592z"/><path fill="#2c3f25" d="m228.565 779.89 41.915 63.525h-83.831z"/><path fill="#2c3f25" d="m229.17 810.14 44.535 63.525h-89.071z"/><path stroke="#7c5757" stroke-width="6.05" d="M276.36 885.16v121"/><path fill="#2c3f25" d="m275.755 738.75 36.676 63.525h-73.352z"/><path fill="#2c3f25" d="m276.36 772.63 39.296 63.525h-78.592z"/><path fill="#2c3f25" d="m275.755 804.09 41.916 63.525h-83.832z"/><path fill="#2c3f25" d="m276.36 834.34 44.535 63.525h-89.07z"/><path stroke="#7c5757" stroke-width="6.05" d="M313.87 860.96v121"/><path fill="#2c3f25" d="m313.265 714.55 36.676 63.525h-73.352z"/><path fill="#2c3f25" d="m313.87 748.43 39.296 63.525h-78.592z"/><path fill="#2c3f25" d="m313.265 779.89 41.915 63.525h-83.831z"/><path fill="#2c3f25" d="m313.87 810.14 44.535 63.525h-89.071z"/><path stroke="#7c5757" stroke-width="6.05" d="M294.51 903.31v121"/><path fill="#2c3f25" d="m293.905 756.9 36.676 63.525h-73.352z"/><path fill="#2c3f25" d="m294.51 790.78 39.296 63.525h-78.592z"/><path fill="#2c3f25" d="m293.905 822.24 41.916 63.525h-83.832z"/><path fill="#2c3f25" d="m294.51 852.49 44.535 63.525h-89.07z"/><path stroke="#7c5757" stroke-width="6.05" d="M332.02 879.11v121"/><path fill="#2c3f25" d="m331.415 732.7 36.676 63.525h-73.352z"/><path fill="#2c3f25" d="m332.02 766.58 39.295 63.525h-78.591z"/><path fill="#2c3f25" d="m331.415 798.04 41.915 63.525h-83.831z"/><path fill="#2c3f25" d="m332.02 828.29 44.535 63.525h-89.071z"/><path stroke="#7c5757" stroke-width="6.05" d="M379.21 903.31v121"/><path fill="#2c3f25" d="m378.605 756.9 36.676 63.525h-73.352z"/><path fill="#2c3f25" d="m379.21 790.78 39.296 63.525h-78.592z"/><path fill="#2c3f25" d="m378.605 822.24 41.915 63.525h-83.831z"/><path fill="#2c3f25" d="m379.21 852.49 44.535 63.525h-89.071z"/><path stroke="#7c5757" stroke-width="6.05" d="M416.72 879.11v121"/><path fill="#2c3f25" d="m416.115 732.7 36.676 63.525h-73.352z"/><path fill="#2c3f25" d="m416.72 766.58 39.296 63.525h-78.592z"/><path fill="#2c3f25" d="m416.115 798.04 41.915 63.525h-83.831z"/><path fill="#2c3f25" d="m416.72 828.29 44.535 63.525h-89.07z"/><path stroke="#7c5757" stroke-width="6.05" d="M438.5 910.57v121"/><path fill="#2c3f25" d="m437.895 764.16 36.676 63.525h-73.352z"/><path fill="#2c3f25" d="m438.5 798.04 39.296 63.525h-78.592z"/><path fill="#2c3f25" d="m437.895 829.5 41.915 63.525h-83.831z"/><path fill="#2c3f25" d="m438.5 859.75 44.535 63.525h-89.071z"/><path stroke="#7c5757" stroke-width="6.05" d="M476.01 886.37v121"/><path fill="#2c3f25" d="m475.405 739.96 36.676 63.525h-73.352z"/><path fill="#2c3f25" d="m476.01 773.84 39.296 63.525h-78.592z"/><path fill="#2c3f25" d="m475.405 805.3 41.916 63.525h-83.832z"/><path fill="#2c3f25" d="m476.01 835.55 44.535 63.525h-89.07z"/><path stroke="#7c5757" stroke-width="6.05" d="M523.2 910.57v121"/><path fill="#2c3f25" d="m522.595 764.16 36.676 63.525h-73.352z"/><path fill="#2c3f25" d="m523.2 798.04 39.296 63.525h-78.592z"/><path fill="#2c3f25" d="m522.595 829.5 41.915 63.525h-83.831z"/><path fill="#2c3f25" d="m523.2 859.75 44.535 63.525h-89.07z"/><path stroke="#7c5757" stroke-width="6.05" d="M560.71 886.37v121"/><path fill="#2c3f25" d="m560.105 739.96 36.676 63.525h-73.352z"/><path fill="#2c3f25" d="m560.71 773.84 39.296 63.525h-78.592z"/><path fill="#2c3f25" d="m560.105 805.3 41.916 63.525h-83.832z"/><path fill="#2c3f25" d="m560.71 835.55 44.536 63.525h-89.071z"/><path stroke="#7c5757" stroke-width="6.05" d="M544.98 916.62v121"/><path fill="#2c3f25" d="m544.374 770.21 36.677 63.525h-73.353z"/><path fill="#2c3f25" d="m544.979 804.09 39.296 63.525h-78.591z"/><path fill="#2c3f25" d="m544.375 835.55 41.915 63.525h-83.831z"/><path fill="#2c3f25" d="m544.98 865.8 44.535 63.525h-89.071z"/><path stroke="#7c5757" stroke-width="6.05" d="M582.49 892.42v121"/><path fill="#2c3f25" d="m581.885 746.01 36.676 63.525h-73.352z"/><path fill="#2c3f25" d="m582.49 779.89 39.296 63.525h-78.592z"/><path fill="#2c3f25" d="m581.885 811.35 41.916 63.525H539.97z"/><path fill="#2c3f25" d="m582.49 841.6 44.535 63.525h-89.07z"/><path stroke="#7c5757" stroke-width="6.05" d="M629.68 916.62v121"/><path fill="#2c3f25" d="m629.075 770.21 36.676 63.525h-73.353z"/><path fill="#2c3f25" d="m629.68 804.09 39.296 63.525h-78.592z"/><path fill="#2c3f25" d="m629.075 835.55 41.915 63.525h-83.831z"/><path fill="#2c3f25" d="m629.68 865.8 44.535 63.525h-89.07z"/><path stroke="#7c5757" stroke-width="6.05" d="M667.19 892.42v121"/><path fill="#2c3f25" d="m666.585 746.01 36.676 63.525h-73.352z"/><path fill="#2c3f25" d="m667.189 779.89 39.296 63.525h-78.591z"/><path fill="#2c3f25" d="m666.585 811.35 41.916 63.525h-83.832z"/><path fill="#2c3f25" d="m667.19 841.6 44.535 63.525h-89.071z"/><path stroke="#7c5757" stroke-width="6.05" d="M645.41 952.92v121"/><path fill="#2c3f25" d="m644.805 806.51 36.676 63.525h-73.353z"/><path fill="#2c3f25" d="m645.41 840.39 39.296 63.525h-78.592z"/><path fill="#2c3f25" d="m644.805 871.85 41.915 63.525h-83.831z"/><path fill="#2c3f25" d="m645.41 902.1 44.535 63.525h-89.07z"/><path stroke="#7c5757" stroke-width="6.05" d="M682.92 928.72v121"/><path fill="#2c3f25" d="m682.315 782.31 36.676 63.525h-73.352z"/><path fill="#2c3f25" d="m682.92 816.19 39.296 63.525h-78.592z"/><path fill="#2c3f25" d="m682.315 847.65 41.915 63.525h-83.831z"/><path fill="#2c3f25" d="m682.92 877.9 44.535 63.525h-89.071z"/><path stroke="#7c5757" stroke-width="6.05" d="M730.11 952.92v121"/><path fill="#2c3f25" d="m729.505 806.51 36.676 63.525h-73.352z"/><path fill="#2c3f25" d="m730.11 840.39 39.296 63.525h-78.592z"/><path fill="#2c3f25" d="m729.505 871.85 41.916 63.525h-83.832z"/><path fill="#2c3f25" d="m730.11 902.1 44.535 63.525h-89.07z"/><path stroke="#7c5757" stroke-width="6.05" d="M767.62 928.72v121"/><path fill="#2c3f25" d="m767.015 782.31 36.676 63.525h-73.352z"/><path fill="#2c3f25" d="m767.62 816.19 39.296 63.525h-78.592z"/><path fill="#2c3f25" d="m767.015 847.65 41.915 63.525h-83.831z"/><path fill="#2c3f25" d="m767.62 877.9 44.535 63.525h-89.071z"/><path fill="#2c3f25" d="m751.285 869.43 36.676 63.525h-73.352z"/><path fill="#2c3f25" d="m751.89 903.31 39.296 63.525h-78.592z"/><path fill="#2c3f25" d="m751.285 934.77 41.916 63.525H709.37z"/><path fill="#2c3f25" d="m751.89 965.02 44.535 63.53h-89.071z"/><path stroke="#7c5757" stroke-width="6.05" d="M789.4 991.64v121"/><path fill="#2c3f25" d="m788.794 845.23 36.677 63.525h-73.353z"/><path fill="#2c3f25" d="m789.399 879.11 39.296 63.525h-78.591z"/><path fill="#2c3f25" d="m788.795 910.57 41.915 63.525h-83.831z"/><path fill="#2c3f25" d="m789.4 940.82 44.535 63.53h-89.071zM835.985 869.43l36.676 63.525h-73.352z"/><path fill="#2c3f25" d="m836.59 903.31 39.296 63.525h-78.592z"/><path fill="#2c3f25" d="m835.985 934.77 41.916 63.525h-83.832z"/><path fill="#2c3f25" d="m836.59 965.02 44.535 63.53h-89.071z"/><path stroke="#7c5757" stroke-width="6.05" d="M874.1 991.64v121"/><path fill="#2c3f25" d="m873.495 845.23 36.676 63.525h-73.353z"/><path fill="#2c3f25" d="m874.1 879.11 39.296 63.525h-78.592z"/><path fill="#2c3f25" d="m873.495 910.57 41.915 63.525h-83.831z"/><path fill="#2c3f25" d="m874.1 940.82 44.535 63.53h-89.071z"/><path fill="#2c3f25" d="m840.825 916.62 36.676 63.525h-73.353z"/><path fill="#2c3f25" d="m841.43 950.5 39.296 63.52h-78.592z"/><path fill="#2c3f25" d="m840.825 981.96 41.915 63.52h-83.831zM878.335 892.42l36.676 63.525h-73.352z"/><path fill="#2c3f25" d="m878.939 926.3 39.296 63.525h-78.591z"/><path fill="#2c3f25" d="m878.335 957.76 41.916 63.52h-83.832z"/><path fill="#2c3f25" d="m878.94 988.01 44.535 63.52h-89.071zM925.525 916.62l36.676 63.525h-73.352z"/><path fill="#2c3f25" d="m926.13 950.5 39.296 63.52h-78.592z"/><path fill="#2c3f25" d="m925.525 981.96 41.916 63.52h-83.832zM963.035 892.42l36.676 63.525h-73.352z"/><path fill="#2c3f25" d="m963.64 926.3 39.3 63.525h-78.596z"/><path fill="#2c3f25" d="m963.035 957.76 41.915 63.52h-83.83z"/><path fill="#2c3f25" d="m963.64 988.01 44.54 63.52h-89.076z"/><path fill="#293a22" d="m-15.389 626.567 40.344 69.877h-80.687z"/><path fill="#293a22" d="m-14.723 663.835 43.225 69.877h-86.45z"/><path fill="#293a22" d="m-15.389 698.441 46.108 69.877h-92.215z"/><path fill="#293a22" d="m-14.723 731.716 48.989 69.877h-97.978zM-47.998 812.907.99 882.784h-97.978z"/><path fill="#293a22" d="m-7.403 681.138 40.344 69.877h-80.688z"/><path fill="#293a22" d="m-6.737 718.406 43.225 69.878h-86.45z"/><path fill="#293a22" d="m-7.403 753.012 46.107 69.877H-53.51z"/><path fill="#293a22" d="m-6.737 786.287 48.989 69.878h-97.978z"/><path stroke="#7c5757" stroke-width="6.655" d="M45.172 868.809v133.101"/><path fill="#293a22" d="m44.506 707.758 40.344 69.877H4.163z"/><path fill="#293a22" d="m45.172 745.026 43.225 69.877H1.946z"/><path fill="#293a22" d="m44.506 779.632 46.108 69.877H-1.601z"/><path fill="#293a22" d="m45.172 812.907 48.989 69.877H-3.817z"/><path stroke="#7c5757" stroke-width="6.655" d="M86.433 842.189v133.1"/><path fill="#293a22" d="m85.768 681.138 40.343 69.877H45.424z"/><path fill="#293a22" d="m86.433 718.406 43.225 69.878h-86.45z"/><path fill="#293a22" d="m85.768 753.012 46.107 69.877H39.661z"/><path fill="#293a22" d="m86.433 786.287 48.989 69.878H37.444z"/><path stroke="#7c5757" stroke-width="6.655" d="M54.489 904.746v133.104"/><path fill="#293a22" d="m53.823 743.695 40.344 69.877H13.48z"/><path fill="#293a22" d="m54.489 780.963 43.225 69.877h-86.45z"/><path fill="#293a22" d="m53.823 815.569 46.107 69.877H7.716z"/><path fill="#293a22" d="m54.489 848.844 48.989 69.877H5.5z"/><path stroke="#7c5757" stroke-width="6.655" d="M95.749 878.126v133.104"/><path fill="#293a22" d="m95.084 717.075 40.344 69.877H54.74z"/><path fill="#293a22" d="m95.75 754.343 43.225 69.878H52.524z"/><path fill="#293a22" d="m95.084 788.949 46.107 69.877H48.977z"/><path fill="#293a22" d="m95.75 822.224 48.989 69.877H46.761z"/><path stroke="#7c5757" stroke-width="6.655" d="M147.659 904.746v133.104"/><path fill="#293a22" d="m146.993 743.695 40.344 69.877h-80.688z"/><path fill="#293a22" d="m147.659 780.963 43.225 69.877h-86.451z"/><path fill="#293a22" d="m146.993 815.569 46.108 69.877h-92.215z"/><path fill="#293a22" d="m147.659 848.844 48.989 69.877H98.67z"/><path stroke="#7c5757" stroke-width="6.655" d="M188.92 878.126v133.104"/><path fill="#293a22" d="m188.254 717.075 40.344 69.877h-80.687z"/><path fill="#293a22" d="m188.92 754.343 43.225 69.878h-86.451z"/><path fill="#293a22" d="m188.255 788.949 46.107 69.877h-92.215z"/><path fill="#293a22" d="m188.92 822.224 48.989 69.877h-97.978z"/><path stroke="#7c5757" stroke-width="6.655" d="M156.976 944.676v133.104"/><path fill="#293a22" d="m156.311 783.625 40.343 69.878h-80.687z"/><path fill="#293a22" d="m156.975 820.893 43.226 69.878H113.75z"/><path fill="#293a22" d="m156.31 855.499 46.108 69.878h-92.215z"/><path fill="#293a22" d="m156.976 888.774 48.989 69.877h-97.978z"/><path stroke="#7c5757" stroke-width="6.655" d="M198.237 918.056v133.104"/><path fill="#293a22" d="m197.572 757.005 40.344 69.877h-80.688z"/><path fill="#293a22" d="m198.237 794.273 43.225 69.877h-86.451z"/><path fill="#293a22" d="m197.572 828.879 46.107 69.877h-92.215z"/><path fill="#293a22" d="m198.237 862.154 48.989 69.877h-97.978z"/><path stroke="#7c5757" stroke-width="6.655" d="M250.146 944.676v133.104"/><path fill="#293a22" d="m249.481 783.625 40.343 69.878h-80.687z"/><path fill="#293a22" d="m250.146 820.893 43.225 69.878H206.92z"/><path fill="#293a22" d="m249.48 855.499 46.107 69.878h-92.214z"/><path fill="#293a22" d="m250.146 888.774 48.989 69.877h-97.978z"/><path stroke="#7c5757" stroke-width="6.655" d="M291.407 918.056v133.104"/><path fill="#293a22" d="m290.741 757.005 40.344 69.877h-80.688z"/><path fill="#293a22" d="m291.407 794.273 43.225 69.877h-86.451z"/><path fill="#293a22" d="m290.741 828.879 46.108 69.877h-92.215z"/><path fill="#293a22" d="m291.407 862.154 48.989 69.877h-97.978z"/><path stroke="#7c5757" stroke-width="6.655" d="M270.111 964.641v133.099"/><path fill="#293a22" d="m269.445 803.59 40.344 69.877h-80.687z"/><path fill="#293a22" d="m270.111 840.858 43.226 69.877h-86.451z"/><path fill="#293a22" d="m269.446 875.464 46.107 69.877h-92.215z"/><path fill="#293a22" d="m270.111 908.739 48.989 69.877h-97.978z"/><path stroke="#7c5757" stroke-width="6.655" d="M311.372 938.021v133.099"/><path fill="#293a22" d="m310.706 776.97 40.344 69.877h-80.688z"/><path fill="#293a22" d="m311.371 814.238 43.226 69.877h-86.451z"/><path fill="#293a22" d="m310.706 848.844 46.108 69.877h-92.215z"/><path fill="#293a22" d="m311.372 882.119 48.989 69.877h-97.978z"/><path stroke="#7c5757" stroke-width="6.655" d="M363.281 964.641v133.099"/><path fill="#293a22" d="m362.615 803.59 40.344 69.877h-80.688z"/><path fill="#293a22" d="m363.281 840.858 43.226 69.877h-86.451z"/><path fill="#293a22" d="m362.615 875.464 46.108 69.877h-92.215z"/><path fill="#293a22" d="m363.281 908.739 48.989 69.877h-97.978z"/><path stroke="#7c5757" stroke-width="6.655" d="M404.542 938.021v133.099"/><path fill="#293a22" d="m403.877 776.97 40.343 69.877h-80.687z"/><path fill="#293a22" d="m404.542 814.238 43.225 69.877h-86.451z"/><path fill="#293a22" d="m403.876 848.844 46.107 69.877h-92.214z"/><path fill="#293a22" d="m404.542 882.119 48.989 69.877h-97.978z"/><path stroke="#7c5757" stroke-width="6.655" d="M428.5 972.627v133.103"/><path fill="#293a22" d="m427.834 811.576 40.344 69.877H387.49z"/><path fill="#293a22" d="m428.5 848.844 43.225 69.877h-86.451z"/><path fill="#293a22" d="m427.834 883.45 46.107 69.877h-92.214z"/><path fill="#293a22" d="m428.5 916.725 48.989 69.877h-97.978z"/><path stroke="#7c5757" stroke-width="6.655" d="M469.762 946.007v133.103"/><path fill="#293a22" d="m469.096 784.956 40.344 69.877h-80.688z"/><path fill="#293a22" d="m469.762 822.224 43.225 69.877h-86.451z"/><path fill="#293a22" d="m469.096 856.83 46.107 69.877h-92.214z"/><path fill="#293a22" d="m469.762 890.105 48.989 69.877h-97.978z"/><path stroke="#7c5757" stroke-width="6.655" d="M521.67 972.627v133.103"/><path fill="#293a22" d="m521.004 811.576 40.344 69.877H480.66z"/><path fill="#293a22" d="m521.67 848.844 43.225 69.877h-86.451z"/><path fill="#293a22" d="m521.004 883.45 46.107 69.877h-92.214z"/><path fill="#293a22" d="m521.67 916.725 48.988 69.877h-97.977z"/><path stroke="#7c5757" stroke-width="6.655" d="M562.931 946.007v133.103"/><path fill="#293a22" d="m562.265 784.956 40.344 69.877h-80.688z"/><path fill="#293a22" d="m562.931 822.224 43.225 69.877h-86.451z"/><path fill="#293a22" d="m562.265 856.83 46.107 69.877h-92.214z"/><path fill="#293a22" d="m562.931 890.105 48.989 69.877h-97.978z"/><path stroke="#7c5757" stroke-width="6.655" d="M545.628 979.282v133.098"/><path fill="#293a22" d="m544.962 818.231 40.344 69.877h-80.688z"/><path fill="#293a22" d="m545.628 855.499 43.225 69.878h-86.451z"/><path fill="#293a22" d="m544.962 890.105 46.107 69.877h-92.214z"/><path fill="#293a22" d="m545.628 923.38 48.989 69.877h-97.978z"/><path stroke="#7c5757" stroke-width="6.655" d="M586.889 952.662v133.098"/><path fill="#293a22" d="m586.224 791.611 40.343 69.877H545.88z"/><path fill="#293a22" d="m586.889 828.879 43.225 69.877h-86.451z"/><path fill="#293a22" d="m586.223 863.485 46.108 69.877h-92.215z"/><path fill="#293a22" d="m586.889 896.76 48.989 69.877H537.9z"/><path stroke="#7c5757" stroke-width="6.655" d="M638.798 979.282v133.098"/><path fill="#293a22" d="m638.132 818.231 40.344 69.877h-80.687z"/><path fill="#293a22" d="m638.798 855.499 43.225 69.878h-86.451z"/><path fill="#293a22" d="m638.132 890.105 46.107 69.877h-92.214z"/><path fill="#293a22" d="m638.798 923.38 48.989 69.877h-97.978z"/><path stroke="#7c5757" stroke-width="6.655" d="M680.058 952.662v133.098"/><path fill="#293a22" d="m679.394 791.611 40.343 69.877H639.05z"/><path fill="#293a22" d="m680.058 828.879 43.226 69.877h-86.451z"/><path fill="#293a22" d="m679.393 863.485 46.108 69.877h-92.215z"/><path fill="#293a22" d="m680.059 896.76 48.989 69.877H631.07z"/><path fill="#293a22" d="m655.436 858.161 40.343 69.877h-80.687z"/><path fill="#293a22" d="m656.101 895.429 43.225 69.877h-86.451z"/><path fill="#293a22" d="m655.435 930.035 46.108 69.877h-92.215z"/><path fill="#293a22" d="m656.101 963.31 48.989 69.88h-97.978z"/><path stroke="#7c5757" stroke-width="6.655" d="M697.362 992.592v133.098"/><path fill="#293a22" d="m696.696 831.541 40.344 69.877h-80.687z"/><path fill="#293a22" d="m697.362 868.809 43.225 69.877h-86.451z"/><path fill="#293a22" d="m696.696 903.415 46.107 69.877h-92.214z"/><path fill="#293a22" d="m697.362 936.69 48.989 69.88h-97.978zM748.606 858.161l40.343 69.877h-80.687z"/><path fill="#293a22" d="m749.271 895.429 43.225 69.877h-86.451z"/><path fill="#293a22" d="m748.606 930.035 46.107 69.877h-92.214z"/><path fill="#293a22" d="m749.271 963.31 48.989 69.88h-97.978z"/><path stroke="#7c5757" stroke-width="6.655" d="M790.532 992.592v133.098"/><path fill="#293a22" d="m789.866 831.541 40.344 69.877h-80.688z"/><path fill="#293a22" d="m790.532 868.809 43.225 69.877h-86.451z"/><path fill="#293a22" d="m789.866 903.415 46.108 69.877h-92.215z"/><path fill="#293a22" d="m790.532 936.69 48.989 69.88h-97.978z"/><path fill="#293a22" d="m772.564 927.373 40.343 69.877H732.22z"/><path fill="#293a22" d="m773.228 964.641 43.226 69.879h-86.451z"/><path fill="#293a22" d="m772.563 999.247 46.107 69.873h-92.214zM813.824 900.753l40.344 69.877H773.48z"/><path fill="#293a22" d="m814.49 938.021 43.225 69.879h-86.451z"/><path fill="#293a22" d="m813.824 972.627 46.108 69.873h-92.215z"/><path fill="#293a22" d="m865.733 927.373 40.344 69.877H825.39z"/><path fill="#293a22" d="m866.398 964.641 43.226 69.879h-86.451z"/><path fill="#293a22" d="m865.734 999.247 46.107 69.873h-92.215zM906.994 900.753l40.344 69.877H866.65z"/><path fill="#293a22" d="m907.66 938.021 43.226 69.879h-86.451z"/><path fill="#293a22" d="m906.994 972.627 46.108 69.873h-92.215z"/><path fill="#293a22" d="m871.057 979.282 40.344 69.878h-80.688z"/><path fill="#293a22" d="m912.318 952.662 40.344 69.878h-80.688z"/><path fill="#293a22" d="m912.983 989.93 43.226 69.88h-86.451z"/><path fill="#293a22" d="m964.227 979.282 40.343 69.878h-80.687z"/><path fill="#293a22" d="m1005.49 952.662 40.34 69.878h-80.685z"/><path fill="#293a22" d="m1006.15 989.93 43.23 69.88h-86.452z"/><path fill="#25341f" d="M-9.777 664.224 34.6 741.089h-88.756z"/><path fill="#25341f" d="m-9.045 705.219 47.548 76.865h-95.096z"/><path fill="#25341f" d="M-9.777 743.285 40.94 820.15H-60.495z"/><path fill="#25341f" d="m-9.046 779.887 53.888 76.866H-62.933z"/><path fill="#25341f" d="M-45.648 794.529 1.9 871.394h-95.096z"/><path fill="#25341f" d="M-46.38 832.595 4.338 909.46H-97.098z"/><path fill="#25341f" d="M-45.648 869.198 8.24 946.063H-99.536z"/><path stroke="#7c5757" stroke-width="7.321" d="M-.261 901.408v146.412"/><path fill="#25341f" d="m-.993 724.252 44.378 76.865H-45.37z"/><path fill="#25341f" d="m-.26 765.247 47.547 76.865h-95.096z"/><path fill="#25341f" d="m-.993 803.313 50.718 76.865H-51.711z"/><path fill="#25341f" d="m-.26 839.916 53.887 76.865H-54.15z"/><path stroke="#7c5757" stroke-width="7.321" d="M56.839 930.69v146.41"/><path fill="#25341f" d="m56.107 753.534 44.378 76.865H11.729z"/><path fill="#25341f" d="m56.839 794.529 47.548 76.865H9.291z"/><path fill="#25341f" d="m56.107 832.595 50.718 76.865H5.389z"/><path fill="#25341f" d="m56.839 869.198 53.888 76.865H2.951z"/><path stroke="#7c5757" stroke-width="7.321" d="M102.226 901.408v146.412"/><path fill="#25341f" d="m101.494 724.252 44.378 76.865H57.116z"/><path fill="#25341f" d="m102.226 765.247 47.548 76.865H54.678z"/><path fill="#25341f" d="m101.494 803.313 50.718 76.865H50.776z"/><path fill="#25341f" d="m102.226 839.916 53.888 76.865H48.338z"/><path stroke="#7c5757" stroke-width="7.321" d="M67.088 970.22v146.41"/><path fill="#25341f" d="m66.356 793.064 44.378 76.866H21.978z"/><path fill="#25341f" d="m67.088 834.059 47.548 76.865H19.54z"/><path fill="#25341f" d="m66.356 872.126 50.718 76.865H15.638z"/><path fill="#25341f" d="m67.088 908.729 53.888 76.865H13.2z"/><path stroke="#7c5757" stroke-width="7.321" d="M112.475 940.938v146.412"/><path fill="#25341f" d="m111.743 763.782 44.378 76.866H67.364z"/><path fill="#25341f" d="m112.475 804.777 47.548 76.866H64.927z"/><path fill="#25341f" d="m111.743 842.844 50.718 76.865H61.025z"/><path fill="#25341f" d="m112.475 879.446 53.888 76.866H58.587z"/><path stroke="#7c5757" stroke-width="7.321" d="M169.575 970.22v146.41"/><path fill="#25341f" d="m168.843 793.064 44.378 76.866h-88.757z"/><path fill="#25341f" d="m169.575 834.059 47.548 76.865h-95.096z"/><path fill="#25341f" d="m168.843 872.126 50.718 76.865H118.125z"/><path fill="#25341f" d="m169.575 908.729 53.888 76.865H115.687z"/><path stroke="#7c5757" stroke-width="7.321" d="M214.962 940.938v146.412"/><path fill="#25341f" d="m214.23 763.782 44.378 76.866h-88.756z"/><path fill="#25341f" d="m214.962 804.777 47.548 76.866h-95.096z"/><path fill="#25341f" d="m214.23 842.844 50.718 76.865H163.512z"/><path fill="#25341f" d="m214.962 879.446 53.888 76.866H161.074z"/><path fill="#25341f" d="m179.092 836.988 44.378 76.865h-88.757z"/><path fill="#25341f" d="m179.823 877.982 47.548 76.866h-95.096z"/><path fill="#25341f" d="m179.091 916.049 50.718 76.865H128.373z"/><path fill="#25341f" d="m179.823 952.652 53.888 76.868H125.936z"/><path stroke="#7c5757" stroke-width="7.321" d="M225.211 984.862v146.408"/><path fill="#25341f" d="m224.478 807.706 44.379 76.865H180.1z"/><path fill="#25341f" d="m225.21 848.7 47.548 76.866h-95.096z"/><path fill="#25341f" d="m224.479 886.767 50.717 76.865H173.761z"/><path fill="#25341f" d="m225.211 923.369 53.887 76.861H171.323zM281.578 836.988l44.379 76.865H237.2z"/><path fill="#25341f" d="m282.31 877.982 47.549 76.866h-95.097z"/><path fill="#25341f" d="m281.579 916.049 50.718 76.865H230.861z"/><path fill="#25341f" d="m282.31 952.652 53.888 76.868H228.422z"/><path stroke="#7c5757" stroke-width="7.321" d="M327.697 984.862v146.408"/><path fill="#25341f" d="m326.965 807.706 44.378 76.865h-88.756z"/><path fill="#25341f" d="m327.698 848.7 47.548 76.866H280.15z"/><path fill="#25341f" d="m326.965 886.767 50.718 76.865H276.247z"/><path fill="#25341f" d="m327.697 923.369 53.888 76.861H273.81z"/><path fill="#25341f" d="m303.54 858.949 44.379 76.865h-88.757z"/><path fill="#25341f" d="m304.272 899.944 47.548 76.865h-95.096z"/><path fill="#25341f" d="m303.54 938.01 50.718 76.87H252.822z"/><path fill="#25341f" d="m304.272 974.613 53.888 76.867H250.384zM348.927 829.667l44.378 76.865h-88.756z"/><path fill="#25341f" d="m349.659 870.662 47.548 76.865h-95.096z"/><path fill="#25341f" d="m348.927 908.729 50.718 76.865H298.209z"/><path fill="#25341f" d="m349.659 945.331 53.888 76.869H295.771zM406.027 858.949l44.378 76.865h-88.756z"/><path fill="#25341f" d="m406.759 899.944 47.548 76.865h-95.096z"/><path fill="#25341f" d="m406.027 938.01 50.718 76.87H355.309z"/><path fill="#25341f" d="m406.759 974.613 53.888 76.867H352.871zM451.414 829.667l44.379 76.865h-88.757z"/><path fill="#25341f" d="m452.146 870.662 47.548 76.865h-95.096z"/><path fill="#25341f" d="m451.414 908.729 50.718 76.865H400.696z"/><path fill="#25341f" d="m452.146 945.331 53.888 76.869H398.258zM477.767 867.733l44.379 76.866h-88.757z"/><path fill="#25341f" d="m478.5 908.728 47.548 76.866h-95.096z"/><path fill="#25341f" d="m477.768 946.795 50.718 76.865H427.05z"/><path fill="#25341f" d="m478.5 983.397 53.887 76.863H424.612zM523.156 838.451l44.378 76.866h-88.757z"/><path fill="#25341f" d="m523.888 879.446 47.548 76.866H476.34z"/><path fill="#25341f" d="m523.156 917.513 50.718 76.865H472.438z"/><path fill="#25341f" d="m523.888 954.115 53.888 76.865H470zM580.255 867.733l44.378 76.866h-88.756z"/><path fill="#25341f" d="m580.987 908.728 47.548 76.866h-95.096z"/><path fill="#25341f" d="m580.254 946.795 50.718 76.865H529.537z"/><path fill="#25341f" d="m580.986 983.397 53.888 76.863H527.099zM625.642 838.451l44.378 76.866h-88.756z"/><path fill="#25341f" d="m626.374 879.446 47.548 76.866h-95.096z"/><path fill="#25341f" d="m625.642 917.513 50.718 76.865H574.924z"/><path fill="#25341f" d="m626.374 954.115 53.888 76.865H572.486zM606.609 875.054l44.378 76.865h-88.756z"/><path fill="#25341f" d="m607.341 916.049 47.548 76.865h-95.096z"/><path fill="#25341f" d="m606.609 954.115 50.718 76.865H555.891z"/><path fill="#25341f" d="m607.341 990.718 53.888 76.862H553.454zM651.996 845.772l44.379 76.865h-88.757z"/><path fill="#25341f" d="m652.728 886.767 47.548 76.865H605.18z"/><path fill="#25341f" d="m651.996 924.833 50.718 76.867H601.278z"/><path fill="#25341f" d="m652.728 961.436 53.888 76.864H598.84zM709.096 875.054l44.378 76.865h-88.757z"/><path fill="#25341f" d="m709.828 916.049 47.548 76.865H662.28z"/><path fill="#25341f" d="m709.096 954.115 50.718 76.865H658.378z"/><path fill="#25341f" d="m709.828 990.718 53.888 76.862H655.94zM754.482 845.772l44.378 76.865h-88.756z"/><path fill="#25341f" d="m755.214 886.767 47.548 76.865h-95.096z"/><path fill="#25341f" d="M754.482 924.833 805.2 1001.7H703.765z"/><path fill="#25341f" d="m755.214 961.436 53.888 76.864H701.327z"/><path fill="#25341f" d="m728.129 918.977 44.378 76.865h-88.756z"/><path fill="#25341f" d="m728.861 959.972 47.548 76.868h-95.096z"/><path fill="#25341f" d="m728.129 998.039 50.718 76.861H677.411zM773.516 889.695l44.378 76.865h-88.756z"/><path fill="#25341f" d="m774.248 930.69 47.548 76.86H726.7z"/><path fill="#25341f" d="m773.516 968.756 50.718 76.864H722.798z"/><path fill="#25341f" d="m830.616 918.977 44.378 76.865h-88.756z"/><path fill="#25341f" d="m831.348 959.972 47.548 76.868H783.8z"/><path fill="#25341f" d="m830.616 998.038 50.718 76.862H779.898zM876.003 889.695l44.378 76.865h-88.756z"/><path fill="#25341f" d="m876.735 930.69 47.548 76.86h-95.096z"/><path fill="#25341f" d="m876.003 968.756 50.718 76.864H825.285z"/><path fill="#25341f" d="m856.97 995.11 44.378 76.87h-88.756z"/><path fill="#25341f" d="m902.356 965.828 44.378 76.862h-88.756z"/><path fill="#25341f" d="m959.456 995.11 44.374 76.87h-88.752z"/><path fill="#25341f" d="m1004.84 965.828 44.38 76.862h-88.755z"/><path fill="#24321e" d="m-6.132 779.887 48.816 84.552h-97.632z"/><path fill="#24321e" d="m-5.327 824.981 52.303 84.552H-57.63z"/><path fill="#24321e" d="m-6.132 866.854 55.79 84.552h-111.58z"/><path fill="#24321e" d="m-5.327 907.117 59.277 84.552H-64.604z"/><path stroke="#7c5757" stroke-width="8.053" d="M44.599 942.549V1103.6"/><path fill="#24321e" d="m43.794 747.677 48.816 84.552H-5.022z"/><path fill="#24321e" d="m44.599 792.771 52.303 84.552H-7.704z"/><path fill="#24321e" d="m43.794 834.645 55.79 84.551h-111.58z"/><path fill="#24321e" d="m44.599 874.907 59.277 84.552H-14.677z"/><path fill="#24321e" d="m5.141 823.371 48.816 84.552h-97.632z"/><path fill="#24321e" d="m5.947 868.465 52.302 84.552H-46.356z"/><path fill="#24321e" d="m5.141 910.338 55.79 84.552h-111.58z"/><path fill="#24321e" d="m5.947 950.601 59.276 84.549H-53.33z"/><path stroke="#7c5757" stroke-width="8.053" d="M55.873 986.032v161.048"/><path fill="#24321e" d="m55.067 791.161 48.816 84.551H6.251z"/><path fill="#24321e" d="m55.873 836.255 52.302 84.552H3.57z"/><path fill="#24321e" d="m55.067 878.128 55.79 84.552H-.723z"/><path fill="#24321e" d="m55.873 918.391 59.276 84.549H-3.404zM117.877 823.371l48.816 84.552H69.061z"/><path fill="#24321e" d="m118.683 868.465 52.303 84.552H66.38z"/><path fill="#24321e" d="m117.877 910.338 55.79 84.552H62.087z"/><path fill="#24321e" d="m118.683 950.601 59.276 84.549H59.406z"/><path stroke="#7c5757" stroke-width="8.053" d="M168.608 986.032v161.048"/><path fill="#24321e" d="m167.803 791.161 48.816 84.551h-97.632z"/><path fill="#24321e" d="m168.608 836.255 52.303 84.552H116.305z"/><path fill="#24321e" d="m167.803 878.128 55.789 84.552H112.013z"/><path fill="#24321e" d="m168.608 918.391 59.277 84.549H109.332z"/><path fill="#24321e" d="m129.151 871.686 48.816 84.552H80.335z"/><path fill="#24321e" d="m129.956 916.781 52.302 84.549H77.653z"/><path fill="#24321e" d="m129.151 958.654 55.79 84.556H73.361z"/><path fill="#24321e" d="m129.956 998.917 59.277 84.553H70.679zM179.076 839.476l48.816 84.552H130.26z"/><path fill="#24321e" d="m179.881 884.57 52.303 84.552H127.579z"/><path fill="#24321e" d="m179.076 926.444 55.79 84.556h-111.58z"/><path fill="#24321e" d="m179.882 966.706 59.276 84.554H120.605zM241.886 871.686l48.816 84.552H193.07z"/><path fill="#24321e" d="m242.691 916.781 52.303 84.549H190.389z"/><path fill="#24321e" d="m241.886 958.654 55.79 84.556H186.097z"/><path fill="#24321e" d="m242.691 998.917 59.277 84.553H183.415zM291.812 839.476l48.816 84.552h-97.632z"/><path fill="#24321e" d="m292.617 884.57 52.303 84.552H240.314z"/><path fill="#24321e" d="m291.812 926.444 55.79 84.556h-111.58z"/><path fill="#24321e" d="m292.617 966.706 59.277 84.554H233.341z"/><path fill="#24321e" d="m266.044 895.844 48.816 84.552h-97.632z"/><path fill="#24321e" d="m266.849 940.938 52.303 84.552H214.546z"/><path fill="#24321e" d="m266.044 982.812 55.79 84.548h-111.58zM315.97 863.634l48.816 84.552h-97.632z"/><path fill="#24321e" d="m316.774 908.728 52.303 84.552H264.472z"/><path fill="#24321e" d="m315.97 950.601 55.789 84.549H260.18z"/><path fill="#24321e" d="m316.775 990.864 59.276 84.556H257.498zM378.78 895.844l48.816 84.552h-97.632z"/><path fill="#24321e" d="m379.585 940.938 52.303 84.552H327.282z"/><path fill="#24321e" d="m378.78 982.812 55.789 84.548H322.99zM428.705 863.634l48.816 84.552h-97.632z"/><path fill="#24321e" d="m429.511 908.728 52.303 84.552H377.208z"/><path fill="#24321e" d="m428.706 950.601 55.789 84.549H372.916z"/><path fill="#24321e" d="m429.511 990.864 59.276 84.556H370.234zM457.695 905.507l48.815 84.552h-97.631z"/><path fill="#24321e" d="m458.5 950.601 52.303 84.549H406.197z"/><path fill="#24321e" d="m457.695 992.474 55.79 84.556h-111.58zM507.621 873.297l48.816 84.551h-97.632z"/><path fill="#24321e" d="m508.426 918.391 52.303 84.549H456.124z"/><path fill="#24321e" d="m507.622 960.264 55.789 84.556H451.832z"/><path fill="#24321e" d="m570.43 905.507 48.816 84.552h-97.632z"/><path fill="#24321e" d="m571.235 950.601 52.303 84.549H518.932z"/><path fill="#24321e" d="m570.43 992.474 55.789 84.556H514.64zM620.356 873.297l48.816 84.551H571.54z"/><path fill="#24321e" d="m621.162 918.391 52.303 84.549H568.859z"/><path fill="#24321e" d="m620.356 960.264 55.79 84.556h-111.58z"/><path fill="#24321e" d="m599.42 913.559 48.816 84.552h-97.632z"/><path fill="#24321e" d="m600.225 958.654 52.303 84.556H547.922z"/><path fill="#24321e" d="m649.346 881.349 48.816 84.552H600.53z"/><path fill="#24321e" d="M650.151 926.443 702.454 1011H597.848z"/><path fill="#24321e" d="m649.346 968.317 55.789 84.553H593.556z"/><path fill="#24321e" d="m712.155 913.559 48.816 84.552h-97.632z"/><path fill="#24321e" d="m712.961 958.654 52.303 84.556H660.658z"/><path fill="#24321e" d="m762.081 881.349 48.816 84.552h-97.632z"/><path fill="#24321e" d="M762.886 926.443 815.189 1011H710.583z"/><path fill="#24321e" d="m762.081 968.317 55.79 84.553h-111.58z"/><path fill="#24321e" d="m733.091 961.875 48.816 84.555h-97.632z"/><path fill="#24321e" d="m783.017 929.665 48.816 84.555h-97.632z"/><path fill="#24321e" d="m783.823 974.759 52.303 84.551H731.52z"/><path fill="#24321e" d="m845.828 961.875 48.816 84.555h-97.632z"/><path fill="#24321e" d="m895.753 929.665 48.816 84.555h-97.632z"/><path fill="#24321e" d="m896.559 974.759 52.303 84.551H844.256z"/></g><defs><linearGradient id="a" x1="800" x2="800" y1="0" y2="1000" gradientUnits="userSpaceOnUse"><stop stop-color="#908777"/><stop offset="1" stop-color="#f6e7cb"/></linearGradient></defs></svg>