<svg xmlns="http://www.w3.org/2000/svg" width="842" height="459" fill="none" viewBox="0 0 842 459"><path fill="#0f262e" d="M218.13 398.857c-.864 5.897 0 15.26 0 15.26l16.157 2.394.317-5.229a60 60 0 0 1 1.276-9.192l1.1-5.028 5.386-15.26 2.693-6.284.098-.228c1.132-2.641 4.725-3.013 6.373-.658.272.388.466.824.571 1.285l.593 2.593a47.5 47.5 0 0 1 1.029 14.523l-.585 7.021 2.095 20.347 14.961.897s1.303-4.148 1.795-6.882c.808-4.491.598-11.669.598-11.669l.356-1.868c.56-2.94.903-5.916.99-8.907.049-1.718.099-3.734.128-5.682.018-1.258.028-2.488.022-3.591-.025-5.356-.423-13.207-.556-15.681a2.14 2.14 0 0 1 .427-1.401c.278-.371.429-.822.429-1.285v-17.729c0-1.219.484-2.389 1.346-3.251l.5-.5a2.9 2.9 0 0 0 .847-2.043v-.299c0-3.34.822-6.628 2.393-9.575 0 0 1.637-2.799 2.095-4.788.394-1.712.225-2.733.299-4.488.202-4.788.758-7.594-.299-12.268l-.052-.221c-.744-3.082-1.429-6.189-1.612-9.354a50 50 0 0 0-.131-1.795c-.234-2.468-.53-3.832-.898-6.284-.545-3.628-.69-5.696-1.496-9.276-.586-2.599-.942-4.058-1.795-6.582-.89-2.632-1.098-4.309-2.693-6.583-1.472-2.098-2.67-3.046-4.788-4.488-.824-.562-1.887-1.1-2.917-1.561-2.211-.989-3.46-3.298-5.162-5.022a4 4 0 0 0-.865-.632c-1.182-.669-2.127-1.806-2.127-3.165 0-.643.209-1.267.557-1.809.435-.677 1.003-1.655 1.238-2.473.889-3.082.215-6.449-.528-9.569a9 9 0 0 0-.369-1.203c-.66-1.657-1.265-2.509-2.394-3.89-1.205-1.472-1.854-2.515-3.591-3.291-1.508-.674-2.536-.583-4.189-.598-1.768-.017-2.81.039-4.488.598-1.939.646-3.228 1.083-4.488 2.693-1.576 2.013-2.494 4.516-4.183 6.435-.388.44-.775.897-1.129 1.345-.243.306-.471.608-.673.897-1.378 1.973-2.282 3.087-2.992 5.386-.351 1.139-.867 1.831-.598 2.992.433 1.872 1.795 3.508 1.795 5.428v2.95c0 1.274-.752 2.424-1.883 3.008-1.536.794-3.662 2.012-4.999 3.276-2.45 2.315-3.204 4.206-4.787 7.181q-.572 1.074-1.049 2.095c-3.124 6.664-3.428 11.825-4.038 19.748-.341 4.427-.769 6.997 0 11.37.551 3.131 2.183 4.608 2.394 7.78.22 3.316-.61 5.175-1.496 8.378-1.029 3.716-2.518 5.663-3.77 8.977q-.215.567-.419 1.196c-1.695 5.234-2.564 8.28-2.993 13.764-.245 3.146-.728 5.01 0 8.079l.017.07c.486 2.049.789 3.328 2.078 5.017 1.262 1.654 2.198 2.688 4.189 3.291.345.105.72.158 1.11.171 2.634.092 5.473 1.682 5.473 4.318l.169 11.036c.086 5.567-.928 11.074-2.211 16.492a40 40 0 0 0-.651 3.291"/><path fill="#0f262e" d="m255.233 420.401-2.095-20.347-16.158-2.992-1.1 5.028a60 60 0 0 0-1.276 9.192l-.317 5.229z"/><path fill="#274641" d="M0 362.053c23.587 2.65 145.719 35.251 157.389 38.599 11.669 3.349 38.449 7.709 60.741 13.465 0 0-.864-9.363 0-15.26.149-1.017.381-2.148.651-3.291l-10.229-2.821c-13.713-3.781-28.314-9.015-40.707-15.998-19.749-11.129-50.592-28.357-73.89-35.639-11.463-3.583-18.26-4.627-30.222-5.685C38.771 333.215 0 342.903 0 342.903z"/><path fill="#0f262e" d="M272.587 402.747s.21 7.178-.598 11.669c-.492 2.734-1.795 6.882-1.795 6.882s31.343 3.351 51.465 5.087c26.841 2.316 68.82 4.788 68.82 4.788s-41.563-13.361-68.82-19.449c-19.013-4.247-49.072-8.977-49.072-8.977"/><path fill="#0e252d" d="m270.194 421.298-14.961-.897-20.946-3.89-16.157-2.394c-22.292-5.756-49.072-10.116-60.741-13.465C145.719 397.304 23.587 364.703 0 362.053V399c0 33.137 26.863 60 60 60H782c33.137 0 60-26.863 60-60v-84.821s-6.08-2.107-9.273-2.506c-11.163-1.397-18.429-.342-30.523.71-3.11.271-5.975.579-8.678.928-12.362 1.596-21.336 4.056-34.872 7.766l-1.034.283c-41.769 11.444-100.537 46.806-100.537 46.806l-25.433 11.84-98.198 36.612a60 60 0 0 1-10.942 2.938l-63.622 10.774a60 60 0 0 1-10.018.843h-58.39s-41.979-2.472-68.82-4.788c-20.122-1.736-51.465-5.087-51.465-5.087"/><path fill="#465d49" d="M273.933 391.972a56.4 56.4 0 0 1-.99 8.907l-.356 1.868s30.059 4.73 49.072 8.977c27.257 6.088 68.82 19.449 68.82 19.449h58.39a60 60 0 0 0 10.018-.843l63.622-10.774a60 60 0 0 0 10.942-2.938l98.198-36.612 25.433-11.84s-19.324 1.306-31.717 1.966c-27.437 1.463-42.932.153-70.316 2.394-27.837 2.278-43.451 4.194-70.915 9.276-30.292 5.605-46.016 15.15-76.599 18.85-20.434 2.473-32.111 3.205-52.663 2.095-32.16-1.737-80.811-16.457-80.811-16.457a427 427 0 0 1-.128 5.682"/><path fill="#475e4c" d="m253.138 400.054.585-7.021a47.5 47.5 0 0 0-1.029-14.523l-7.635-2.992-2.693 6.284-5.386 15.26z"/><path fill="#465d49" d="M218.781 395.566c1.283-5.418 2.297-10.925 2.211-16.492l-.169-11.036s-68.276-25.94-113.105-38.899C67.324 314.777 0 304.604 0 304.604v38.299s38.77-9.688 63.733-7.48c11.963 1.058 18.76 2.102 30.221 5.685 23.299 7.282 54.142 24.51 73.891 35.639 12.393 6.983 26.994 12.217 40.707 15.998zM802.203 312.383c12.094-1.052 19.36-2.107 30.523-.71 3.193.399 9.273 2.506 9.273 2.506v-25.135s-14.145 6.354-23.04 10.772c-10.07 5.002-25.434 13.495-25.434 13.495 2.703-.349 5.568-.657 8.678-.928"/><path fill="#87804b" d="M274.083 382.699c.006 1.103-.004 2.333-.022 3.591 0 0 48.651 14.72 80.811 16.457 20.552 1.11 32.229.378 52.663-2.095 30.583-3.7 46.307-13.245 76.599-18.85 27.464-5.082 43.078-6.998 70.915-9.276 27.384-2.241 42.879-.931 70.316-2.394 12.393-.66 31.717-1.966 31.717-1.966s58.768-35.362 100.537-46.806l1.034-.283c13.536-3.71 22.51-6.17 34.872-7.766 0 0 15.364-8.493 25.434-13.495 8.895-4.418 23.04-10.772 23.04-10.772v-48.473s-33.356 10.079-54.458 17.355c-23.882 8.234-57.177 21.536-72.487 27.736a63.6 63.6 0 0 1-17.207 4.284c-15.206 1.61-46.661 5.246-68.592 9.87-19.607 4.134-30.604 6.703-49.67 12.866-20.565 6.648-31.409 12.297-51.466 20.347-35.303 14.169-53.754 25.764-90.064 37.103-18.343 5.729-28.71 8.911-47.576 12.567-12.525 2.428-19.6 3.755-32.315 4.788-15.573 1.265-24.419.809-39.992.005l-.104-.005c-17.255-.89-43.985-4.788-43.985-4.788"/><path fill="#ce926e" d="M252.101 375.917a3.7 3.7 0 0 0-.571-1.285c-1.648-2.355-5.241-1.983-6.373.658l-.098.228 7.635 2.992z"/><path fill="#cf956f" d="M220.823 368.038c0-2.636-2.839-4.226-5.473-4.318a4.3 4.3 0 0 1-1.11-.171c-1.991-.603-2.927-1.637-4.189-3.291-1.289-1.689-1.592-2.968-2.078-5.017l-.017-.07c-.728-3.069-.245-4.933 0-8.079.429-5.484 1.298-8.53 2.993-13.764q.204-.629.419-1.196s-32.507-4.654-53.082-8.977c-23.381-4.913-36.496-7.96-59.245-15.26-12.88-4.134-19.911-7.02-32.615-11.67C40.993 284.556 0 270.792 0 270.792v33.812s67.324 10.173 107.718 24.535c44.829 12.959 113.105 38.899 113.105 38.899M277.076 340.809a2.9 2.9 0 0 1-.847 2.043l-.5.5a4.6 4.6 0 0 0-1.346 3.251v17.729c0 .463-.151.914-.429 1.285a2.14 2.14 0 0 0-.427 1.401c.133 2.474.531 10.325.556 15.681 0 0 26.73 3.898 43.985 4.788l.104.005c15.573.804 24.419 1.26 39.992-.005 12.715-1.033 19.79-2.36 32.315-4.788 18.866-3.656 29.233-6.838 47.576-12.567 36.31-11.339 54.761-22.934 90.064-37.103 20.057-8.05 30.901-13.699 51.466-20.347 19.066-6.163 30.063-8.732 49.67-12.866 21.931-4.624 53.386-8.26 68.592-9.87a63.6 63.6 0 0 0 17.207-4.284c15.31-6.2 48.605-19.502 72.487-27.736 21.102-7.276 54.458-17.355 54.458-17.355v-53.859s-9.544 3.684-15.56 6.283c-10.311 4.456-18.408 8.851-26.032 13.368-11.086 6.569-21.171 13.396-35.606 21.042-21.059 11.154-31.64 20.66-54.458 27.529-11.653 3.507-18.462 4.65-30.52 6.283-20.731 2.807-32.641.751-53.56.898-15.074.106-23.608-1.574-38.599 0-9.553 1.002-14.932 1.804-24.237 4.189-12.573 3.222-19.316 6.27-31.119 11.669-15.566 7.12-23.067 13.477-38 21.843-17.289 9.686-26.161 16.934-44.584 24.237a207 207 0 0 1-8.677 3.231c-9.726 3.363-17.538 5.114-29.323 7.84-19.017 4.398-29.927 6.085-49.371 7.779-16.421 1.431-25.712 1.582-42.19 1.197-16.871-.393-43.087-3.291-43.087-3.291"/><path fill="#9e5f40" d="M215.138 323.155c.886-3.203 1.716-5.062 1.496-8.378-.211-3.172-1.843-4.649-2.394-7.78-.769-4.373-.341-6.943 0-11.37.61-7.923.914-13.084 4.038-19.748 0 0-11.367-2.354-18.7-3.591-8.147-1.374-12.828-1.445-20.945-2.992-13.198-2.516-20.723-4.024-33.213-8.977-18.424-7.306-26.139-16.566-43.387-26.331-17.466-9.889-26.728-16.783-45.48-23.937C35.365 201.969 0 196.885 0 196.885v73.907s40.993 13.764 66.426 25.433c12.704 4.65 19.734 7.536 32.615 11.67 22.749 7.3 35.864 10.347 59.245 15.26 20.575 4.323 53.082 8.977 53.082 8.977 1.252-3.314 2.741-5.261 3.77-8.977M279.9 299.816c.183 3.165.868 6.272 1.612 9.354l.052.221c1.057 4.674.501 7.48.299 12.268-.074 1.755.095 2.776-.299 4.488-.458 1.989-2.095 4.788-2.095 4.788a20.35 20.35 0 0 0-2.393 9.575v.299s26.216 2.898 43.087 3.291c16.478.385 25.769.234 42.19-1.197 19.444-1.694 30.354-3.381 49.371-7.779 11.785-2.726 19.597-4.477 29.323-7.84l-43.985-.538-28.426-2.992-34.709-5.985-25.134-6.882z"/><path fill="#6b939b" d="M219.327 273.784c1.583-2.975 2.337-4.866 4.787-7.181 1.337-1.264 3.463-2.482 4.999-3.276 1.131-.584 1.883-1.734 1.883-3.008 0 0-8.121-6.548-12.718-11.37-6.943-7.281-7.435-14.51-15.408-20.646-3.653-2.811-5.908-4.237-10.174-5.984-4.774-1.955-8.082-1.062-12.866-2.992-6.745-2.722-11.839-8.368-15.812-14.461-9.032-13.855-14.544-25.56-22.315-37.74-3.649-5.718-7.796-11.541-13.039-17.741a172 172 0 0 0-2.394-2.768c-6.456-7.308-8.975-12.967-17.355-17.953-5.782-3.441-9.456-5.374-16.158-5.985-6.984-.636-11.63-.301-17.653 3.292-17.056 10.173-22.624 12.744-38.3 17.953C22.839 148.563 0 147.514 0 147.514v49.371s35.366 5.084 56.552 13.166c18.753 7.154 28.015 14.048 45.481 23.937 17.248 9.765 24.963 19.025 43.387 26.331 12.49 4.953 20.015 6.461 33.213 8.977 8.117 1.547 12.798 1.618 20.945 2.992 7.333 1.237 18.7 3.591 18.7 3.591q.477-1.02 1.049-2.095M275.58 275.879c.853 2.524 1.209 3.983 1.795 6.582.806 3.58.951 5.648 1.496 9.276.368 2.452.664 3.816.898 6.284.052.549.095 1.166.131 1.795l28.893 11.071 25.134 6.882 34.709 5.985 28.426 2.992 43.985.538a207 207 0 0 0 8.677-3.231c18.423-7.303 27.295-14.551 44.584-24.237 14.933-8.366 22.434-14.723 38-21.843 11.803-5.399 18.546-8.447 31.119-11.669 9.305-2.385 14.684-3.187 24.237-4.189 14.991-1.574 23.525.106 38.599 0 20.919-.147 32.829 1.909 53.56-.898 12.058-1.633 18.867-2.776 30.52-6.283 22.818-6.869 33.399-16.375 54.458-27.529 14.435-7.646 24.52-14.473 35.606-21.042l-25.732-1.399s-25.475-1.823-40.395-7.78c-10.593-4.229-16.059-7.863-25.433-14.362-8.865-6.146-11.934-12.206-21.245-17.654-2.842-1.663-4.337-2.908-7.48-3.89-3.807-1.189-6.334.182-10.174-.897-4.79-1.346-8.663-4.812-11.954-8.545a423 423 0 0 1-3.236-3.723l-.284-.33c-6.182-7.175-11.007-12.775-20.731-18.521-6.302-3.724-9.838-6.551-17.055-7.78-4.723-.804-7.589-1.026-12.268 0-6.343 1.392-9.66 4.794-13.604 8.774-3.19 3.219-6.34 6.509-8.934 10.225a224 224 0 0 0-7.161 10.923c-13.116 21.329-18.394 37.671-36.129 59.545 0 0-5.176 6.64-12.489 14.96-7.456 8.484-17.134 18.714-25.811 25.434-13.959 10.81-22.492 16.516-38.898 23.04-17.868 7.104-29.203 7.043-48.174 10.173-19.735 3.256-30.866 5.959-50.867 5.984-11.123.014-17.374-.544-28.426-1.795-23.185-2.625-58.347-12.866-58.347-12.866"/><path fill="#a0bdc1" d="M258.823 250.146c-.235.818-.803 1.796-1.238 2.473a3.36 3.36 0 0 0-.557 1.809c0 1.359.945 2.496 2.127 3.165.327.185.633.397.865.632 1.702 1.724 2.951 4.033 5.162 5.022 1.03.461 2.093.999 2.917 1.561 2.118 1.442 3.316 2.39 4.788 4.488 1.595 2.274 1.803 3.951 2.693 6.583 0 0 35.162 10.241 58.347 12.866 11.052 1.251 17.303 1.809 28.426 1.795 20.001-.025 31.132-2.728 50.867-5.984 18.971-3.13 30.306-3.069 48.174-10.173 16.406-6.524 24.939-12.23 38.898-23.04 8.677-6.72 18.355-16.95 25.811-25.434 0 0-13.244-8.378-22.22-13.165-6.531-2.521-10.388-5.171-17.355-4.488-5.038.493-7.76 1.997-12.164 4.431l-.104.057c-4.162 2.299-8.574 6.726-11.684 10.222-2.893 3.251-5.829 6.472-9.194 9.233-4.681 3.841-11.771 9.473-17.422 13.16-12.824 8.366-20.672 12.275-35.008 17.653-13.243 4.968-20.917 8.067-35.009 9.276-6.985.6-17.953 0-17.953 0s-15.899-2.434-25.732-5.386c-6.524-1.958-15.052-5.547-20.386-7.896-3.375-1.486-6.841-2.753-10.431-3.594-2.982-.698-6.663-1.505-9.578-1.975-5.338-.859-8.424-.647-13.764-1.496-3.644-.579-9.276-1.795-9.276-1.795M230.996 257.369c0-1.92-1.362-3.556-1.795-5.428-.269-1.161.247-1.853.598-2.992.71-2.299 1.614-3.413 2.992-5.386.202-.289.43-.591.673-.897 0 0-11.102-9.176-17.429-15.859-5.534-5.845-8.078-9.621-13.165-15.858-7.359-9.023-10.617-14.819-18.552-23.339-5.632-6.048-8.519-9.882-15.26-14.662-4.185-2.968-6.399-5.315-11.37-6.583-3.292-.839-5.282-.687-8.678-.598-2.464.064-4.182-.691-6.283.598-.425.261-1.024.761-1.024.761 7.771 12.18 13.283 23.885 22.315 37.74 3.973 6.093 9.067 11.739 15.812 14.461 4.784 1.93 8.092 1.037 12.866 2.992 4.266 1.747 6.521 3.173 10.174 5.984 7.973 6.136 8.465 13.365 15.408 20.646 4.597 4.822 12.718 11.37 12.718 11.37z"/><path fill="#dae4e3" d="M826.439 192.995c6.016-2.599 15.56-6.283 15.56-6.283v-40.993s-63.286-.645-103.829 0c-32.584.518-83.412 2.394-83.412 2.394a423 423 0 0 0 3.236 3.723c3.291 3.733 7.164 7.199 11.954 8.545 3.84 1.079 6.367-.292 10.174.897 3.143.982 4.638 2.227 7.48 3.89 9.311 5.448 12.38 11.508 21.245 17.654 9.374 6.499 14.84 10.133 25.433 14.362 14.92 5.957 40.395 7.78 40.395 7.78l25.732 1.399c7.624-4.517 15.721-8.912 26.032-13.368"/><path fill="#ccdcdb" d="M581.882 140.481c2.594-3.716 5.744-7.006 8.934-10.225 3.944-3.98 7.261-7.382 13.604-8.774l-.673-3.247-133.975 4.743-192.397 11.67-148.711 14.737c5.243 6.2 9.39 12.023 13.039 17.741 0 0 .599-.5 1.024-.761 2.101-1.289 3.819-.534 6.283-.598 3.396-.089 5.386-.241 8.678.598 4.971 1.268 7.185 3.615 11.37 6.583 6.741 4.78 9.628 8.614 15.26 14.662l81.687-8.079 94.852-9.575 147.215-14.064 66.649-4.488a224 224 0 0 1 7.161-10.923"/><path fill="#ccdcdb" d="M604.42 121.482c4.679-1.026 7.545-.804 12.268 0 7.217 1.229 10.753 4.056 17.055 7.78 9.724 5.746 14.549 11.346 20.731 18.521l.284.33s50.828-1.876 83.412-2.394c40.543-.645 103.829 0 103.829 0V107.12l-127.168 7.181-111.084 3.934z"/><path fill="#dae4e3" d="M234.593 241.321c1.689-1.919 2.607-4.422 4.183-6.435 1.26-1.61 2.549-2.047 4.488-2.693 1.678-.559 2.72-.615 4.488-.598 1.653.015 2.681-.076 4.189.598 1.737.776 2.386 1.819 3.591 3.291 1.129 1.381 1.734 2.233 2.394 3.89.145.365.267.774.369 1.203.743 3.12 1.417 6.487.528 9.569 0 0 5.632 1.216 9.276 1.795 5.34.849 8.426.637 13.764 1.496 2.915.47 6.596 1.277 9.578 1.975 3.59.841 7.056 2.108 10.431 3.594 5.334 2.349 13.862 5.938 20.386 7.896 9.833 2.952 25.732 5.386 25.732 5.386s10.968.6 17.953 0c14.092-1.209 21.766-4.308 35.009-9.276 14.336-5.378 22.184-9.287 35.008-17.653 5.651-3.687 12.741-9.319 17.422-13.16 3.365-2.761 6.301-5.982 9.194-9.233 3.11-3.496 7.522-7.923 11.684-10.222l.104-.057c4.404-2.434 7.126-3.938 12.164-4.431 6.967-.683 10.824 1.967 17.355 4.488 8.976 4.787 22.22 13.165 22.22 13.165 7.313-8.32 12.489-14.96 12.489-14.96 17.735-21.874 23.013-38.216 36.129-59.545l-66.649 4.488-147.215 14.064-94.852 9.575-81.687 8.079c7.935 8.52 11.193 14.316 18.552 23.339 5.087 6.237 7.631 10.013 13.165 15.858 6.327 6.683 17.429 15.859 17.429 15.859.354-.448.741-.905 1.129-1.345"/><path fill="#aac4c5" d="M0 96.348s96.096-2.737 157.688-2.992V0H60C26.863 0 0 26.863 0 60zM157.688 93.356c67.544-.28 105.404 1.666 172.948 2.095 74.199.47 115.803.415 190.003 0 84.856-.476 133.176-1.259 216.558-2.61h.004l5.158-.084c38.913-.63 99.64-1.795 99.64-1.795V60c0-33.137-26.863-60-60-60H157.688z"/><path fill="#bed2d3" d="M0 147.514s22.84 1.049 36.804-3.59c15.676-5.209 21.244-7.78 38.3-17.953 6.023-3.593 10.67-3.928 17.653-3.292 6.702.611 10.376 2.544 16.158 5.985 8.38 4.986 10.899 10.645 17.355 17.953q1.234 1.397 2.394 2.768l148.711-14.737 192.397-11.67 25.433-13.764 25.434-13.763c-74.2.415-115.804.47-190.003 0-67.544-.429-105.404-2.375-172.948-2.095C96.096 93.61 0 96.348 0 96.348z"/><path fill="#bed2d3" d="m714.831 114.301 127.168-7.181V90.962s-60.727 1.165-99.64 1.795l-5.158.084h-.004c-83.382 1.351-131.702 2.134-216.558 2.61l-25.434 13.763-25.433 13.764 133.975-4.743z"/><path fill="url(#a)" d="m365.676 5.685 1.232 40.699a.76.76 0 0 0 .638.724l.605.162.584.225.559.284a.83.83 0 0 0 .999-.069l15.577-13.48-14.673 14.29a.687.687 0 0 0-.054.924l.341.525.284.559.225.584.162.605a.745.745 0 0 0 .724.629l40.639.616-40.639.616a.745.745 0 0 0-.724.628l-.162.605-.225.585-.284.558a.73.73 0 0 0 .126.942l33.47 29.877-34.296-28.96a.76.76 0 0 0-.965-.01l-.525.341-.559.285-.584.224-.605.162a.72.72 0 0 0-.61.724l.61 44.349-1.844-44.349a.765.765 0 0 0-.645-.724l-.605-.162-.585-.224-.558-.285-.525-.341-.487-.394a.71.71 0 0 0-.937-.059l-13.131 10.213 12.424-11.19a.815.815 0 0 0 .181-.977l-.224-.585-.162-.605a.745.745 0 0 0-.725-.628l-42.852-.616 42.852-.617a.745.745 0 0 0 .725-.628l.162-.605.224-.584.285-.559a.83.83 0 0 0-.069-.998L327.283 9.994l34.593 38.057c.236.26.635.29.908.07l.525-.342.558-.284.585-.225.605-.162a.734.734 0 0 0 .619-.724z"/><defs><radialGradient id="a" cx="0" cy="0" r="1" gradientTransform="rotate(41.935 113.7 504.906)scale(83.1001 105.138)" gradientUnits="userSpaceOnUse"><stop stop-color="#fff"/><stop offset="1" stop-color="#aac4c5"/></radialGradient></defs></svg>