<svg xmlns="http://www.w3.org/2000/svg" width="45" height="45" fill="none" viewBox="0 0 45 45"><path fill="currentColor" d="M20.25 33.75h4.5v-13.5h-4.5zm2.25-18q.956 0 1.604-.648t.646-1.602-.648-1.602-1.602-.648-1.602.648-.648 1.602.648 1.604 1.602.646m0 29.25q-4.67 0-8.775-1.773t-7.144-4.808-4.808-7.144T0 22.5q-.002-4.666 1.773-8.775 1.775-4.108 4.808-7.144 3.034-3.035 7.144-4.808T22.5 0t8.775 1.773 7.144 4.808 4.81 7.144Q45.007 17.834 45 22.5t-1.773 8.775q-1.766 4.108-4.808 7.144-3.042 3.035-7.144 4.81Q27.173 45.005 22.5 45m0-4.5q7.537 0 12.769-5.231 5.23-5.232 5.231-12.769T35.269 9.731Q30.037 4.501 22.5 4.5T9.731 9.731Q4.501 14.963 4.5 22.5t5.231 12.769q5.232 5.23 12.769 5.231"/></svg>