<svg viewBox="0 0 842 459" fill="none" xmlns="http://www.w3.org/2000/svg">
<path d="M218.13 398.857C217.266 404.754 218.13 414.117 218.13 414.117L234.287 416.511L234.604 411.282C234.792 408.19 235.218 405.117 235.88 402.09L236.98 397.062L242.366 381.802L245.059 375.518L245.157 375.29C246.289 372.649 249.882 372.277 251.53 374.632C251.802 375.02 251.996 375.456 252.101 375.917L252.694 378.51C253.781 383.269 254.129 388.168 253.723 393.033L253.138 400.054L255.233 420.401L270.194 421.298C270.194 421.298 271.497 417.15 271.989 414.416C272.797 409.925 272.587 402.747 272.587 402.747L272.943 400.879C273.503 397.939 273.846 394.963 273.933 391.972C273.982 390.254 274.032 388.238 274.061 386.29C274.079 385.032 274.089 383.802 274.083 382.699C274.058 377.343 273.66 369.492 273.527 367.018C273.5 366.514 273.651 366.021 273.954 365.617C274.232 365.246 274.383 364.795 274.383 364.332V346.603C274.383 345.384 274.867 344.214 275.729 343.352L276.229 342.852C276.771 342.31 277.076 341.575 277.076 340.809V340.51C277.076 337.17 277.898 333.882 279.469 330.935C279.469 330.935 281.106 328.136 281.564 326.147C281.958 324.435 281.789 323.414 281.863 321.659C282.065 316.871 282.621 314.065 281.564 309.391C281.547 309.319 281.53 309.245 281.512 309.17C280.768 306.088 280.083 302.981 279.9 299.816C279.864 299.187 279.821 298.57 279.769 298.021C279.535 295.553 279.239 294.189 278.871 291.737C278.326 288.109 278.181 286.041 277.375 282.461C276.789 279.862 276.433 278.403 275.58 275.879C274.69 273.247 274.482 271.57 272.887 269.296C271.415 267.198 270.217 266.25 268.099 264.808C267.275 264.246 266.212 263.708 265.182 263.247C262.971 262.258 261.722 259.949 260.02 258.225C259.788 257.99 259.482 257.778 259.155 257.593C257.973 256.924 257.028 255.787 257.028 254.428C257.028 253.785 257.237 253.161 257.585 252.619C258.02 251.942 258.588 250.964 258.823 250.146C259.712 247.064 259.038 243.697 258.295 240.577C258.193 240.148 258.071 239.739 257.926 239.374C257.266 237.717 256.661 236.865 255.532 235.484C254.327 234.012 253.678 232.969 251.941 232.193C250.433 231.519 249.405 231.61 247.752 231.595C245.984 231.578 244.942 231.634 243.264 232.193C241.325 232.839 240.036 233.276 238.776 234.886C237.2 236.899 236.282 239.402 234.593 241.321C234.205 241.761 233.818 242.218 233.464 242.666C233.221 242.972 232.993 243.274 232.791 243.563C231.413 245.536 230.509 246.65 229.799 248.949C229.448 250.088 228.932 250.78 229.201 251.941C229.634 253.813 230.996 255.449 230.996 257.369V260.319C230.996 261.593 230.244 262.743 229.113 263.327C227.577 264.121 225.451 265.339 224.114 266.603C221.664 268.918 220.91 270.809 219.327 273.784C218.945 274.501 218.597 275.198 218.278 275.879C215.154 282.543 214.85 287.704 214.24 295.627C213.899 300.054 213.471 302.624 214.24 306.997C214.791 310.128 216.423 311.605 216.634 314.777C216.854 318.093 216.024 319.952 215.138 323.155C214.109 326.871 212.62 328.818 211.368 332.132C211.225 332.511 211.085 332.908 210.949 333.328C209.254 338.562 208.385 341.608 207.956 347.092C207.711 350.238 207.228 352.102 207.956 355.171C207.962 355.195 207.967 355.218 207.973 355.241C208.459 357.29 208.762 358.569 210.051 360.258C211.313 361.912 212.249 362.946 214.24 363.549C214.585 363.654 214.96 363.707 215.35 363.72C217.984 363.812 220.823 365.402 220.823 368.038L220.992 379.074C221.078 384.641 220.064 390.148 218.781 395.566C218.511 396.709 218.279 397.84 218.13 398.857Z" fill="#0F262E"/>
<path d="M255.233 420.401L253.138 400.054L236.98 397.062L235.88 402.09C235.218 405.117 234.792 408.19 234.604 411.282L234.287 416.511L255.233 420.401Z" fill="#0F262E"/>
<path d="M0 362.053C23.5865 364.703 145.719 397.304 157.389 400.652C169.058 404.001 195.838 408.361 218.13 414.117C218.13 414.117 217.266 404.754 218.13 398.857C218.279 397.84 218.511 396.709 218.781 395.566L208.552 392.745C194.839 388.964 180.238 383.73 167.845 376.747C148.096 365.618 117.253 348.39 93.9544 341.108C82.4922 337.525 75.6957 336.481 63.7334 335.423C38.7705 333.215 0 342.903 0 342.903V362.053Z" fill="#274641"/>
<path d="M272.587 402.747C272.587 402.747 272.797 409.925 271.989 414.416C271.497 417.15 270.194 421.298 270.194 421.298C270.194 421.298 301.537 424.649 321.659 426.385C348.5 428.701 390.479 431.173 390.479 431.173C390.479 431.173 348.916 417.812 321.659 411.724C302.646 407.477 272.587 402.747 272.587 402.747Z" fill="#0F262E"/>
<path d="M270.194 421.298L255.233 420.401L234.287 416.511L218.13 414.117C195.838 408.361 169.058 404.001 157.389 400.652C145.719 397.304 23.5865 364.703 0 362.053V399C0 432.137 26.863 459 60.0001 459H781.999C815.136 459 841.999 432.137 841.999 399V314.179C841.999 314.179 835.919 312.072 832.726 311.673C821.563 310.276 814.297 311.331 802.203 312.383C799.093 312.654 796.228 312.962 793.525 313.311C781.163 314.907 772.189 317.367 758.653 321.077C758.311 321.17 757.967 321.265 757.619 321.36C715.85 332.804 657.082 368.166 657.082 368.166L631.649 380.006L533.451 416.618C529.904 417.94 526.241 418.924 522.509 419.556L458.887 430.33C455.577 430.891 452.226 431.173 448.869 431.173H390.479C390.479 431.173 348.5 428.701 321.659 426.385C301.537 424.649 270.194 421.298 270.194 421.298Z" fill="#0E252D"/>
<path d="M273.933 391.972C273.846 394.963 273.503 397.939 272.943 400.879L272.587 402.747C272.587 402.747 302.646 407.477 321.659 411.724C348.916 417.812 390.479 431.173 390.479 431.173H448.869C452.226 431.173 455.577 430.891 458.887 430.33L522.509 419.556C526.241 418.924 529.904 417.94 533.451 416.618L631.649 380.006L657.082 368.166C657.082 368.166 637.758 369.472 625.365 370.132C597.928 371.595 582.433 370.285 555.049 372.526C527.212 374.804 511.598 376.72 484.134 381.802C453.842 387.407 438.118 396.952 407.535 400.652C387.101 403.125 375.424 403.857 354.872 402.747C322.712 401.01 274.061 386.29 274.061 386.29C274.032 388.238 273.982 390.254 273.933 391.972Z" fill="#465D49"/>
<path d="M253.138 400.054L253.723 393.033C254.129 388.168 253.781 383.269 252.694 378.51L245.059 375.518L242.366 381.802L236.98 397.062L253.138 400.054Z" fill="#475E4C"/>
<path d="M218.781 395.566C220.064 390.148 221.078 384.641 220.992 379.074L220.823 368.038C220.823 368.038 152.547 342.098 107.718 329.139C67.324 314.777 0 304.604 0 304.604V342.903C0 342.903 38.7705 333.215 63.7334 335.423C75.6957 336.481 82.4922 337.525 93.9544 341.108C117.253 348.39 148.096 365.618 167.845 376.747C180.238 383.73 194.839 388.964 208.552 392.745L218.781 395.566Z" fill="#465D49"/>
<path d="M802.203 312.383C814.297 311.331 821.563 310.276 832.726 311.673C835.919 312.072 841.999 314.179 841.999 314.179V289.044C841.999 289.044 827.854 295.398 818.959 299.816C808.889 304.818 793.525 313.311 793.525 313.311C796.228 312.962 799.093 312.654 802.203 312.383Z" fill="#465D49"/>
<path d="M274.083 382.699C274.089 383.802 274.079 385.032 274.061 386.29C274.061 386.29 322.712 401.01 354.872 402.747C375.424 403.857 387.101 403.125 407.535 400.652C438.118 396.952 453.842 387.407 484.134 381.802C511.598 376.72 527.212 374.804 555.049 372.526C582.433 370.285 597.928 371.595 625.365 370.132C637.758 369.472 657.082 368.166 657.082 368.166C657.082 368.166 715.85 332.804 757.619 321.36L758.653 321.077C772.189 317.367 781.163 314.907 793.525 313.311C793.525 313.311 808.889 304.818 818.959 299.816C827.854 295.398 841.999 289.044 841.999 289.044V240.571C841.999 240.571 808.643 250.65 787.541 257.926C763.659 266.16 730.364 279.462 715.054 285.662C709.54 287.894 703.763 289.32 697.847 289.946C682.641 291.556 651.186 295.192 629.255 299.816C609.648 303.95 598.651 306.519 579.585 312.682C559.02 319.33 548.176 324.979 528.119 333.029C492.816 347.198 474.365 358.793 438.055 370.132C419.712 375.861 409.345 379.043 390.479 382.699C377.954 385.127 370.879 386.454 358.164 387.487C342.591 388.752 333.745 388.296 318.172 387.492L318.068 387.487C300.813 386.597 274.083 382.699 274.083 382.699Z" fill="#87804B"/>
<path d="M252.101 375.917C251.996 375.456 251.802 375.02 251.53 374.632C249.882 372.277 246.289 372.649 245.157 375.29L245.059 375.518L252.694 378.51L252.101 375.917Z" fill="#CE926E"/>
<path d="M220.823 368.038C220.823 365.402 217.984 363.812 215.35 363.72C214.96 363.707 214.585 363.654 214.24 363.549C212.249 362.946 211.313 361.912 210.051 360.258C208.762 358.569 208.459 357.29 207.973 355.241L207.956 355.171C207.228 352.102 207.711 350.238 207.956 347.092C208.385 341.608 209.254 338.562 210.949 333.328C211.085 332.908 211.225 332.511 211.368 332.132C211.368 332.132 178.861 327.478 158.286 323.155C134.905 318.242 121.79 315.195 99.0411 307.895C86.1605 303.761 79.1299 300.875 66.4263 296.225C40.9928 284.556 0 270.792 0 270.792V304.604C0 304.604 67.324 314.777 107.718 329.139C152.547 342.098 220.823 368.038 220.823 368.038Z" fill="#CF956F"/>
<path d="M277.076 340.809C277.076 341.575 276.771 342.31 276.229 342.852L275.729 343.352C274.867 344.214 274.383 345.384 274.383 346.603V364.332C274.383 364.795 274.232 365.246 273.954 365.617C273.651 366.021 273.5 366.514 273.527 367.018C273.66 369.492 274.058 377.343 274.083 382.699C274.083 382.699 300.813 386.597 318.068 387.487L318.172 387.492C333.745 388.296 342.591 388.752 358.164 387.487C370.879 386.454 377.954 385.127 390.479 382.699C409.345 379.043 419.712 375.861 438.055 370.132C474.365 358.793 492.816 347.198 528.119 333.029C548.176 324.979 559.02 319.33 579.585 312.682C598.651 306.519 609.648 303.95 629.255 299.816C651.186 295.192 682.641 291.556 697.847 289.946C703.763 289.32 709.54 287.894 715.054 285.662C730.364 279.462 763.659 266.16 787.541 257.926C808.643 250.65 841.999 240.571 841.999 240.571V186.712C841.999 186.712 832.455 190.396 826.439 192.995C816.128 197.451 808.031 201.846 800.407 206.363C789.321 212.932 779.236 219.759 764.801 227.405C743.742 238.559 733.161 248.065 710.343 254.934C698.69 258.441 691.881 259.584 679.823 261.217C659.092 264.024 647.182 261.968 626.263 262.115C611.189 262.221 602.655 260.541 587.664 262.115C578.111 263.117 572.732 263.919 563.427 266.304C550.854 269.526 544.111 272.574 532.308 277.973C516.742 285.093 509.241 291.45 494.308 299.816C477.019 309.502 468.147 316.75 449.724 324.053C446.6 325.291 443.749 326.35 441.047 327.284C431.321 330.647 423.509 332.398 411.724 335.124C392.707 339.522 381.797 341.209 362.353 342.903C345.932 344.334 336.641 344.485 320.163 344.1C303.292 343.707 277.076 340.809 277.076 340.809Z" fill="#CF956F"/>
<path d="M215.138 323.155C216.024 319.952 216.854 318.093 216.634 314.777C216.423 311.605 214.791 310.128 214.24 306.997C213.471 302.624 213.899 300.054 214.24 295.627C214.85 287.704 215.154 282.543 218.278 275.879C218.278 275.879 206.911 273.525 199.578 272.288C191.431 270.914 186.75 270.843 178.633 269.296C165.435 266.78 157.91 265.272 145.42 260.319C126.996 253.013 119.281 243.753 102.033 233.988C84.567 224.099 75.3053 217.205 56.5522 210.051C35.3658 201.969 0 196.885 0 196.885V270.792C0 270.792 40.9928 284.556 66.4263 296.225C79.1299 300.875 86.1605 303.761 99.0411 307.895C121.79 315.195 134.905 318.242 158.286 323.155C178.861 327.478 211.368 332.132 211.368 332.132C212.62 328.818 214.109 326.871 215.138 323.155Z" fill="#9E5F40"/>
<path d="M279.9 299.816C280.083 302.981 280.768 306.088 281.512 309.17C281.53 309.245 281.547 309.319 281.564 309.391C282.621 314.065 282.065 316.871 281.863 321.659C281.789 323.414 281.958 324.435 281.564 326.147C281.106 328.136 279.469 330.935 279.469 330.935C277.898 333.882 277.076 337.17 277.076 340.51V340.809C277.076 340.809 303.292 343.707 320.163 344.1C336.641 344.485 345.932 344.334 362.353 342.903C381.797 341.209 392.707 339.522 411.724 335.124C423.509 332.398 431.321 330.647 441.047 327.284L397.062 326.746L368.636 323.754L333.927 317.769L308.793 310.887L279.9 299.816Z" fill="#9E5F40"/>
<path d="M219.327 273.784C220.91 270.809 221.664 268.918 224.114 266.603C225.451 265.339 227.577 264.121 229.113 263.327C230.244 262.743 230.996 261.593 230.996 260.319C230.996 260.319 222.875 253.771 218.278 248.949C211.335 241.668 210.843 234.439 202.87 228.303C199.217 225.492 196.962 224.066 192.696 222.319C187.922 220.364 184.614 221.257 179.83 219.327C173.085 216.605 167.991 210.959 164.018 204.866C154.986 191.011 149.474 179.306 141.703 167.126C138.054 161.408 133.907 155.585 128.664 149.385C127.89 148.471 127.093 147.548 126.27 146.617C119.814 139.309 117.295 133.65 108.915 128.664C103.133 125.223 99.4586 123.29 92.7575 122.679C85.7734 122.043 81.1266 122.378 75.1037 125.971C58.0482 136.144 52.48 138.715 36.8038 143.924C22.8394 148.563 0 147.514 0 147.514V196.885C0 196.885 35.3658 201.969 56.5522 210.051C75.3053 217.205 84.567 224.099 102.033 233.988C119.281 243.753 126.996 253.013 145.42 260.319C157.91 265.272 165.435 266.78 178.633 269.296C186.75 270.843 191.431 270.914 199.578 272.288C206.911 273.525 218.278 275.879 218.278 275.879C218.597 275.198 218.945 274.501 219.327 273.784Z" fill="#6B939B"/>
<path d="M275.58 275.879C276.433 278.403 276.789 279.862 277.375 282.461C278.181 286.041 278.326 288.109 278.871 291.737C279.239 294.189 279.535 295.553 279.769 298.021C279.821 298.57 279.864 299.187 279.9 299.816L308.793 310.887L333.927 317.769L368.636 323.754L397.062 326.746L441.047 327.284C443.749 326.35 446.6 325.291 449.724 324.053C468.147 316.75 477.019 309.502 494.308 299.816C509.241 291.45 516.742 285.093 532.308 277.973C544.111 272.574 550.854 269.526 563.427 266.304C572.732 263.919 578.111 263.117 587.664 262.115C602.655 260.541 611.189 262.221 626.263 262.115C647.182 261.968 659.092 264.024 679.823 261.217C691.881 259.584 698.69 258.441 710.343 254.934C733.161 248.065 743.742 238.559 764.801 227.405C779.236 219.759 789.321 212.932 800.407 206.363L774.675 204.964C774.675 204.964 749.2 203.141 734.28 197.184C723.687 192.955 718.221 189.321 708.847 182.822C699.982 176.676 696.913 170.616 687.602 165.168C684.76 163.505 683.265 162.26 680.122 161.278C676.315 160.089 673.788 161.46 669.948 160.381C665.158 159.035 661.285 155.569 657.994 151.836C656.857 150.546 655.787 149.308 654.758 148.113C654.663 148.003 654.568 147.893 654.474 147.783C648.292 140.608 643.467 135.008 633.743 129.262C627.441 125.538 623.905 122.711 616.688 121.482C611.965 120.678 609.099 120.456 604.42 121.482C598.077 122.874 594.76 126.276 590.816 130.256C587.626 133.475 584.476 136.765 581.882 140.481C579.226 144.287 576.868 147.912 574.721 151.404C561.605 172.733 556.327 189.075 538.592 210.949C538.592 210.949 533.416 217.589 526.103 225.909C518.647 234.393 508.969 244.623 500.292 251.343C486.333 262.153 477.8 267.859 461.394 274.383C443.526 281.487 432.191 281.426 413.22 284.556C393.485 287.812 382.354 290.515 362.353 290.54C351.23 290.554 344.979 289.996 333.927 288.745C310.742 286.12 275.58 275.879 275.58 275.879Z" fill="#6B939B"/>
<path d="M258.823 250.146C258.588 250.964 258.02 251.942 257.585 252.619C257.237 253.161 257.028 253.785 257.028 254.428C257.028 255.787 257.973 256.924 259.155 257.593C259.482 257.778 259.788 257.99 260.02 258.225C261.722 259.949 262.971 262.258 265.182 263.247C266.212 263.708 267.275 264.246 268.099 264.808C270.217 266.25 271.415 267.198 272.887 269.296C274.482 271.57 274.69 273.247 275.58 275.879C275.58 275.879 310.742 286.12 333.927 288.745C344.979 289.996 351.23 290.554 362.353 290.54C382.354 290.515 393.485 287.812 413.22 284.556C432.191 281.426 443.526 281.487 461.394 274.383C477.8 267.859 486.333 262.153 500.292 251.343C508.969 244.623 518.647 234.393 526.103 225.909C526.103 225.909 512.859 217.531 503.883 212.744C497.352 210.223 493.495 207.573 486.528 208.256C481.49 208.749 478.768 210.253 474.364 212.687L474.26 212.744C470.098 215.043 465.686 219.47 462.576 222.966C459.683 226.217 456.747 229.438 453.382 232.199C448.701 236.04 441.611 241.672 435.96 245.359C423.136 253.725 415.288 257.634 400.952 263.012C387.709 267.98 380.035 271.079 365.943 272.288C358.958 272.888 347.99 272.288 347.99 272.288C347.99 272.288 332.091 269.854 322.258 266.902C315.734 264.944 307.206 261.355 301.872 259.006C298.497 257.52 295.031 256.253 291.441 255.412C288.459 254.714 284.778 253.907 281.863 253.437C276.525 252.578 273.439 252.79 268.099 251.941C264.455 251.362 258.823 250.146 258.823 250.146Z" fill="#A0BDC1"/>
<path d="M230.996 257.369C230.996 255.449 229.634 253.813 229.201 251.941C228.932 250.78 229.448 250.088 229.799 248.949C230.509 246.65 231.413 245.536 232.791 243.563C232.993 243.274 233.221 242.972 233.464 242.666C233.464 242.666 222.362 233.49 216.035 226.807C210.501 220.962 207.957 217.186 202.87 210.949C195.511 201.926 192.253 196.13 184.318 187.61C178.686 181.562 175.799 177.728 169.058 172.948C164.873 169.98 162.659 167.633 157.688 166.365C154.396 165.526 152.406 165.678 149.01 165.767C146.546 165.831 144.828 165.076 142.727 166.365C142.302 166.626 141.703 167.126 141.703 167.126C149.474 179.306 154.986 191.011 164.018 204.866C167.991 210.959 173.085 216.605 179.83 219.327C184.614 221.257 187.922 220.364 192.696 222.319C196.962 224.066 199.217 225.492 202.87 228.303C210.843 234.439 211.335 241.668 218.278 248.949C222.875 253.771 230.996 260.319 230.996 260.319V257.369Z" fill="#A0BDC1"/>
<path d="M826.439 192.995C832.455 190.396 841.999 186.712 841.999 186.712V145.719C841.999 145.719 778.713 145.074 738.17 145.719C705.586 146.237 654.758 148.113 654.758 148.113C655.787 149.308 656.857 150.546 657.994 151.836C661.285 155.569 665.158 159.035 669.948 160.381C673.788 161.46 676.315 160.089 680.122 161.278C683.265 162.26 684.76 163.505 687.602 165.168C696.913 170.616 699.982 176.676 708.847 182.822C718.221 189.321 723.687 192.955 734.28 197.184C749.2 203.141 774.675 204.964 774.675 204.964L800.407 206.363C808.031 201.846 816.128 197.451 826.439 192.995Z" fill="#DAE4E3"/>
<path d="M581.882 140.481C584.476 136.765 587.626 133.475 590.816 130.256C594.76 126.276 598.077 122.874 604.42 121.482L603.747 118.235L469.772 122.978L277.375 134.648L128.664 149.385C133.907 155.585 138.054 161.408 141.703 167.126C141.703 167.126 142.302 166.626 142.727 166.365C144.828 165.076 146.546 165.831 149.01 165.767C152.406 165.678 154.396 165.526 157.688 166.365C162.659 167.633 164.873 169.98 169.058 172.948C175.799 177.728 178.686 181.562 184.318 187.61L266.005 179.531L360.857 169.956L508.072 155.892L574.721 151.404C576.868 147.912 579.226 144.287 581.882 140.481Z" fill="#CCDCDB"/>
<path d="M604.42 121.482C609.099 120.456 611.965 120.678 616.688 121.482C623.905 122.711 627.441 125.538 633.743 129.262C643.467 135.008 648.292 140.608 654.474 147.783L654.758 148.113C654.758 148.113 705.586 146.237 738.17 145.719C778.713 145.074 841.999 145.719 841.999 145.719V107.12L714.831 114.301L603.747 118.235L604.42 121.482Z" fill="#CCDCDB"/>
<path d="M234.593 241.321C236.282 239.402 237.2 236.899 238.776 234.886C240.036 233.276 241.325 232.839 243.264 232.193C244.942 231.634 245.984 231.578 247.752 231.595C249.405 231.61 250.433 231.519 251.941 232.193C253.678 232.969 254.327 234.012 255.532 235.484C256.661 236.865 257.266 237.717 257.926 239.374C258.071 239.739 258.193 240.148 258.295 240.577C259.038 243.697 259.712 247.064 258.823 250.146C258.823 250.146 264.455 251.362 268.099 251.941C273.439 252.79 276.525 252.578 281.863 253.437C284.778 253.907 288.459 254.714 291.441 255.412C295.031 256.253 298.497 257.52 301.872 259.006C307.206 261.355 315.734 264.944 322.258 266.902C332.091 269.854 347.99 272.288 347.99 272.288C347.99 272.288 358.958 272.888 365.943 272.288C380.035 271.079 387.709 267.98 400.952 263.012C415.288 257.634 423.136 253.725 435.96 245.359C441.611 241.672 448.701 236.04 453.382 232.199C456.747 229.438 459.683 226.217 462.576 222.966C465.686 219.47 470.098 215.043 474.26 212.744L474.364 212.687C478.768 210.253 481.49 208.749 486.528 208.256C493.495 207.573 497.352 210.223 503.883 212.744C512.859 217.531 526.103 225.909 526.103 225.909C533.416 217.589 538.592 210.949 538.592 210.949C556.327 189.075 561.605 172.733 574.721 151.404L508.072 155.892L360.857 169.956L266.005 179.531L184.318 187.61C192.253 196.13 195.511 201.926 202.87 210.949C207.957 217.186 210.501 220.962 216.035 226.807C222.362 233.49 233.464 242.666 233.464 242.666C233.818 242.218 234.205 241.761 234.593 241.321Z" fill="#DAE4E3"/>
<path d="M0 96.3481C0 96.3481 96.0963 93.6114 157.688 93.3559V0L60 0C26.863 0 0 26.8629 0 60V96.3481Z" fill="#AAC4C5"/>
<path d="M157.688 93.3559C225.232 93.0758 263.092 95.0223 330.636 95.4505C404.835 95.9208 446.439 95.8663 520.639 95.4505C605.495 94.9749 653.815 94.192 737.197 92.8411C737.199 92.8411 737.2 92.8411 737.201 92.841L742.359 92.7575C781.272 92.1272 841.999 90.9622 841.999 90.9622V60C841.999 26.8629 815.136 0 781.999 0L157.688 0V93.3559Z" fill="#AAC4C5"/>
<path d="M0 147.514C0 147.514 22.8394 148.563 36.8038 143.924C52.48 138.715 58.0482 136.144 75.1037 125.971C81.1266 122.378 85.7734 122.043 92.7575 122.679C99.4586 123.29 103.133 125.223 108.915 128.664C117.295 133.65 119.814 139.309 126.27 146.617C127.093 147.548 127.89 148.471 128.664 149.385L277.375 134.648L469.772 122.978L495.205 109.214L520.639 95.4505C446.439 95.8663 404.835 95.9208 330.636 95.4505C263.092 95.0223 225.232 93.0758 157.688 93.3559C96.0963 93.6114 0 96.3481 0 96.3481V147.514Z" fill="#BED2D3"/>
<path d="M714.831 114.301L841.999 107.12V90.9622C841.999 90.9622 781.272 92.1272 742.359 92.7575L737.201 92.841L737.197 92.8411C653.815 94.192 605.495 94.9749 520.639 95.4505L495.205 109.214L469.772 122.978L603.747 118.235L714.831 114.301Z" fill="#BED2D3"/>
<path d="M365.676 5.68515L366.908 46.3839C366.919 46.7471 367.187 47.0511 367.546 47.108L368.151 47.2701L368.735 47.4946L369.294 47.7789C369.605 47.981 370.012 47.953 370.293 47.7102L385.87 34.2305L371.197 48.5202C370.943 48.7678 370.92 49.1683 371.143 49.444L371.484 49.9694L371.768 50.5275L371.993 51.1123L372.155 51.7173C372.212 52.075 372.517 52.34 372.879 52.3455L413.518 52.9616L372.879 53.5776C372.517 53.5831 372.212 53.8482 372.155 54.2058L371.993 54.8108L371.768 55.3956L371.484 55.9537C371.288 56.256 371.341 56.6562 371.61 56.8962L405.08 86.7732L370.784 57.8129C370.507 57.5784 370.101 57.5742 369.819 57.803L369.294 58.1442L368.735 58.4285L368.151 58.653L367.546 58.8151C367.19 58.8714 366.931 59.1799 366.936 59.5395L367.546 103.888L365.702 59.539C365.687 59.175 365.417 58.8721 365.057 58.8151L364.452 58.653L363.867 58.4285L363.309 58.1442L362.784 57.803L362.297 57.4088C362.044 57.1558 361.642 57.1307 361.36 57.3504L348.229 67.5634L360.653 56.3729C360.928 56.1257 361.002 55.7248 360.834 55.3956L360.61 54.8108L360.448 54.2058C360.391 53.8482 360.085 53.5833 359.723 53.5781L316.871 52.9616L359.723 52.345C360.085 52.3398 360.391 52.0749 360.448 51.7173L360.61 51.1123L360.834 50.5275L361.119 49.9694C361.321 49.6582 361.293 49.251 361.05 48.9706L327.283 9.99389L361.876 48.0508C362.112 48.311 362.511 48.3414 362.784 48.1201L363.309 47.7789L363.867 47.4946L364.452 47.2701L365.057 47.108C365.413 47.0515 365.676 46.7444 365.676 46.3836V5.68515Z" fill="url(#paint0_radial_100_2)"/>
<defs>
<radialGradient id="paint0_radial_100_2" cx="0" cy="0" r="1" gradientUnits="userSpaceOnUse" gradientTransform="translate(366.541 53.3206) rotate(41.9351) scale(83.1001 105.138)">
<stop stop-color="white"/>
<stop offset="1" stop-color="#AAC4C5"/>
</radialGradient>
</defs>
</svg>
