<svg width="45" height="45" viewBox="0 0 45 45" fill="none" xmlns="http://www.w3.org/2000/svg">
<path d="M20.25 33.75H24.75V20.25H20.25V33.75ZM22.5 15.75C23.1375 15.75 23.6722 15.534 24.1042 15.102C24.5362 14.67 24.7515 14.136 24.75 13.5C24.7485 12.864 24.5325 12.33 24.102 11.898C23.6715 11.466 23.1375 11.25 22.5 11.25C21.8625 11.25 21.3285 11.466 20.898 11.898C20.4675 12.33 20.2515 12.864 20.25 13.5C20.2485 14.136 20.4645 14.6707 20.898 15.1042C21.3315 15.5377 21.8655 15.753 22.5 15.75ZM22.5 45C19.3875 45 16.4625 44.409 13.725 43.227C10.9875 42.045 8.60625 40.4422 6.58125 38.4187C4.55625 36.3952 2.9535 34.014 1.773 31.275C0.592503 28.536 0.00150285 25.611 2.8481e-06 22.5C-0.00149715 19.389 0.589503 16.464 1.773 13.725C2.9565 10.986 4.55925 8.60475 6.58125 6.58125C8.60325 4.55775 10.9845 2.955 13.725 1.773C16.4655 0.591 19.3905 0 22.5 0C25.6095 0 28.5345 0.591 31.275 1.773C34.0155 2.955 36.3967 4.55775 38.4187 6.58125C40.4407 8.60475 42.0442 10.986 43.2292 13.725C44.4142 16.464 45.0045 19.389 45 22.5C44.9955 25.611 44.4045 28.536 43.227 31.275C42.0495 34.014 40.4467 36.3952 38.4187 38.4187C36.3907 40.4422 34.0095 42.0457 31.275 43.2292C28.5405 44.4127 25.6155 45.003 22.5 45ZM22.5 40.5C27.525 40.5 31.7812 38.7562 35.2687 35.2687C38.7562 31.7812 40.5 27.525 40.5 22.5C40.5 17.475 38.7562 13.2187 35.2687 9.73125C31.7812 6.24375 27.525 4.5 22.5 4.5C17.475 4.5 13.2187 6.24375 9.73125 9.73125C6.24375 13.2187 4.5 17.475 4.5 22.5C4.5 27.525 6.24375 31.7812 9.73125 35.2687C13.2187 38.7562 17.475 40.5 22.5 40.5Z" fill="black"/>
</svg>
